<?xml version="1.0" encoding="UTF-8"?>
<svg xmlns="http://www.w3.org/2000/svg" xmlns:xlink="http://www.w3.org/1999/xlink" width="350px" height="350px" viewBox="0 0 350 350" version="1.1">
<g id="surface11097">
<path style=" stroke:none;fill-rule:nonzero;fill:rgb(97.647059%,89.019608%,68.235294%);fill-opacity:1;" d="M 125.78125 92.800781 C 125.78125 56.652344 155.089844 27.34375 191.238281 27.34375 C 227.386719 27.34375 256.691406 56.652344 256.691406 92.800781 C 256.691406 125.53125 224.21875 140.671875 224.21875 169.53125 C 220.59375 169.53125 172.871094 169.5625 158.59375 169.5625 C 158.59375 140.671875 125.78125 125.53125 125.78125 92.800781 Z M 125.78125 92.800781 "/>
<path style=" stroke:none;fill-rule:nonzero;fill:rgb(76.078431%,80.392157%,90.588235%);fill-opacity:1;" d="M 191.40625 213.28125 C 209.53125 213.28125 224.21875 198.59375 224.21875 180.46875 L 224.21875 169.53125 L 158.59375 169.53125 L 158.59375 180.46875 C 158.59375 198.59375 173.28125 213.28125 191.40625 213.28125 Z M 191.40625 213.28125 "/>
<path style=" stroke:none;fill-rule:nonzero;fill:rgb(98.039216%,93.72549%,87.058824%);fill-opacity:1;" d="M 230.550781 60.058594 C 225.910156 64.699219 218.570312 65.464844 213.210938 61.675781 C 207.003906 57.273438 199.429688 54.6875 191.242188 54.6875 C 183.425781 54.6875 176.175781 57.050781 170.117188 61.097656 C 164.757812 64.679688 157.605469 63.863281 153.042969 59.308594 L 153.019531 59.285156 C 146.96875 53.234375 147.835938 43.0625 154.957031 38.304688 C 165.320312 31.367188 177.804688 27.34375 191.242188 27.34375 C 205.203125 27.34375 218.152344 31.71875 228.773438 39.171875 C 235.71875 44.050781 236.554688 54.054688 230.550781 60.058594 Z M 230.550781 60.058594 "/>
<path style=" stroke:none;fill-rule:nonzero;fill:rgb(80.392157%,63.137255%,65.490196%);fill-opacity:1;" d="M 251.507812 259.820312 L 230.289062 265.015625 L 140.21875 214.703125 C 141.09375 215.03125 141.96875 215.46875 142.84375 215.851562 L 194.304688 240.132812 C 199.390625 242.539062 205.023438 243.578125 210.65625 243.195312 L 222.632812 242.320312 C 231 241.71875 238.492188 245.875 242.59375 252.4375 C 242.8125 252.765625 242.976562 253.09375 243.140625 253.421875 C 244.835938 256.8125 248.007812 259.21875 251.507812 259.820312 Z M 251.507812 259.820312 "/>
<path style=" stroke:none;fill-rule:nonzero;fill:rgb(98.039216%,93.72549%,87.058824%);fill-opacity:1;" d="M 153.183594 273.4375 L 180.769531 284.480469 C 194.546875 289.992188 209.972656 289.667969 223.507812 283.585938 L 239.640625 276.335938 C 243.566406 274.570312 246.09375 270.664062 246.09375 266.359375 L 246.09375 264.128906 C 246.09375 251.429688 235.316406 241.402344 222.648438 242.308594 L 210.667969 243.171875 C 205.046875 243.578125 199.40625 242.527344 194.308594 240.121094 L 142.84375 215.835938 C 131.738281 210.589844 119.378906 208.574219 107.175781 210.011719 L 42.46875 217.613281 C 36.964844 218.261719 32.8125 222.929688 32.8125 228.480469 L 32.8125 297.714844 C 32.8125 304.828125 39.496094 310.050781 46.402344 308.324219 L 82.292969 299.359375 C 92.734375 296.75 103.765625 298.085938 113.28125 303.09375 L 182.113281 339.347656 C 194.785156 346.019531 209.921875 346.066406 222.636719 339.476562 L 339.140625 279.070312 C 345.8125 275.609375 350 268.71875 350 261.203125 L 350 261.164062 C 350 248.003906 337.570312 238.382812 324.820312 241.6875 L 246.09375 262.09375 "/>
<path style=" stroke:none;fill-rule:nonzero;fill:rgb(93.72549%,84.705882%,74.509804%);fill-opacity:1;" d="M 237.832031 309.722656 L 222.636719 317.597656 C 209.921875 324.191406 194.785156 324.144531 182.113281 317.464844 L 113.28125 281.214844 C 103.757812 276.199219 92.726562 274.871094 82.292969 277.480469 L 32.8125 289.84375 L 32.8125 297.714844 C 32.8125 304.828125 39.496094 310.050781 46.402344 308.324219 L 82.292969 299.359375 C 92.734375 296.75 103.765625 298.085938 113.28125 303.09375 L 182.113281 339.347656 C 194.785156 346.019531 209.921875 346.066406 222.636719 339.476562 L 261.472656 319.34375 L 259.585938 316.082031 C 255.199219 308.488281 245.617188 305.6875 237.832031 309.722656 Z M 237.832031 309.722656 "/>
<path style=" stroke:none;fill-rule:nonzero;fill:rgb(100%,96.862745%,94.117647%);fill-opacity:1;" d="M 142.84375 237.710938 L 194.308594 261.996094 C 199.40625 264.402344 205.046875 265.453125 210.667969 265.046875 L 222.648438 264.183594 C 231.011719 263.582031 238.496094 267.765625 242.617188 274.339844 C 242.796875 274.625 242.972656 274.945312 243.144531 275.296875 C 245.53125 280.097656 250.746094 282.761719 255.9375 281.417969 C 281.625 274.753906 348.769531 257.347656 349.523438 257.152344 C 347.296875 246.136719 336.21875 238.726562 324.820312 241.679688 L 246.09375 262.09375 L 245.878906 262.121094 C 244.796875 250.410156 234.625 241.449219 222.648438 242.316406 L 210.667969 243.179688 C 205.046875 243.582031 199.40625 242.535156 194.308594 240.128906 L 142.84375 215.839844 C 131.738281 210.597656 119.378906 208.578125 107.175781 210.015625 L 42.46875 217.613281 C 36.964844 218.261719 32.8125 222.929688 32.8125 228.480469 L 32.8125 240.625 L 107.175781 231.878906 C 119.378906 230.449219 131.730469 232.464844 142.84375 237.710938 Z M 142.84375 237.710938 "/>
<path style=" stroke:none;fill-rule:nonzero;fill:rgb(100%,96.862745%,94.117647%);fill-opacity:1;" d="M 251.507812 259.820312 L 315.820312 244.015625 C 294.929688 249.429688 269.609375 255.992188 255.9375 259.546875 C 254.460938 259.929688 252.929688 259.984375 251.507812 259.820312 Z M 251.507812 259.820312 "/>
<path style=" stroke:none;fill-rule:nonzero;fill:rgb(55.294118%,42.352941%,62.352941%);fill-opacity:1;" d="M 60.15625 229.6875 L 49.21875 229.6875 C 46.199219 229.6875 43.75 232.132812 43.75 235.15625 C 43.75 238.179688 46.199219 240.625 49.21875 240.625 L 60.15625 240.625 C 63.175781 240.625 65.625 238.179688 65.625 235.15625 C 65.625 232.132812 63.175781 229.6875 60.15625 229.6875 Z M 60.15625 257.03125 L 49.21875 257.03125 C 46.199219 257.03125 43.75 259.476562 43.75 262.5 C 43.75 265.523438 46.199219 267.96875 49.21875 267.96875 L 60.15625 267.96875 C 63.175781 267.96875 65.625 265.523438 65.625 262.5 C 65.625 259.476562 63.175781 257.03125 60.15625 257.03125 Z M 60.15625 284.375 L 49.21875 284.375 C 46.199219 284.375 43.75 286.820312 43.75 289.84375 C 43.75 292.867188 46.199219 295.3125 49.21875 295.3125 L 60.15625 295.3125 C 63.175781 295.3125 65.625 292.867188 65.625 289.84375 C 65.625 286.820312 63.175781 284.375 60.15625 284.375 Z M 60.15625 284.375 "/>
<path style=" stroke:none;fill-rule:nonzero;fill:rgb(55.294118%,42.352941%,62.352941%);fill-opacity:1;" d="M 340.074219 240.925781 C 333.761719 236.042969 325.707031 234.394531 317.984375 236.390625 L 244.65625 255.40625 C 243.21875 251.136719 240.730469 247.238281 237.375 244.121094 C 231.835938 238.96875 224.328125 236.316406 216.785156 236.867188 L 204.804688 237.726562 C 200.125 238.039062 195.421875 237.183594 191.175781 235.179688 L 139.703125 210.898438 C 127.65625 205.210938 114.292969 203.023438 101.066406 204.585938 L 36.363281 212.183594 C 28.105469 213.160156 21.875 220.167969 21.875 228.472656 L 21.875 297.714844 C 21.875 302.800781 24.171875 307.507812 28.179688 310.636719 C 32.1875 313.769531 37.324219 314.878906 42.257812 313.628906 L 78.148438 304.664062 C 87.292969 302.378906 96.921875 303.542969 105.261719 307.929688 L 174.097656 344.179688 C 181.273438 347.960938 189.148438 349.847656 197.035156 349.847656 C 204.808594 349.847656 212.585938 348.007812 219.691406 344.324219 L 336.191406 283.921875 C 344.710938 279.496094 350 270.796875 350 261.160156 C 350 253.1875 346.378906 245.808594 340.074219 240.925781 Z M 331.15625 274.21875 L 214.652344 334.621094 C 203.523438 340.378906 190.273438 340.34375 179.195312 334.507812 L 110.359375 298.253906 C 103.226562 294.496094 95.371094 292.582031 87.445312 292.582031 C 83.453125 292.582031 79.445312 293.070312 75.5 294.058594 L 39.617188 303.023438 C 37.980469 303.4375 36.257812 303.074219 34.917969 302.023438 C 33.578125 300.976562 32.8125 299.410156 32.8125 297.714844 L 32.8125 228.472656 C 32.8125 225.699219 34.890625 223.367188 37.640625 223.042969 L 102.347656 215.4375 C 113.542969 214.117188 124.847656 215.964844 135.039062 220.777344 L 186.507812 245.058594 C 192.441406 247.867188 199.046875 249.117188 205.59375 248.621094 L 217.574219 247.761719 C 222.171875 247.476562 226.554688 248.980469 229.929688 252.113281 C 233.300781 255.257812 235.15625 259.519531 235.15625 264.128906 L 235.15625 266.359375 C 235.15625 268.515625 233.894531 270.46875 231.929688 271.347656 L 215.796875 278.601562 C 203.679688 284.035156 189.65625 284.332031 177.335938 279.398438 L 149.75 268.355469 C 146.929688 267.230469 143.761719 268.597656 142.640625 271.410156 C 141.515625 274.214844 142.882812 277.398438 145.6875 278.519531 L 173.273438 289.558594 C 188.328125 295.589844 205.464844 295.226562 220.28125 288.582031 L 236.410156 281.328125 C 242.292969 278.6875 246.09375 272.8125 246.09375 266.359375 L 320.726562 246.972656 C 325.144531 245.84375 329.761719 246.777344 333.375 249.578125 C 336.988281 252.378906 339.0625 256.597656 339.0625 261.203125 C 339.0625 266.699219 336.03125 271.6875 331.15625 274.21875 Z M 185.9375 147.65625 C 185.9375 150.679688 188.386719 153.125 191.40625 153.125 C 194.425781 153.125 196.875 150.679688 196.875 147.65625 L 196.875 117.109375 L 217.148438 96.835938 C 219.285156 94.695312 219.285156 91.242188 217.148438 89.101562 C 215.007812 86.964844 211.554688 86.964844 209.414062 89.101562 L 187.539062 110.976562 C 186.511719 112 185.9375 113.390625 185.9375 114.84375 Z M 185.9375 147.65625 "/>
<path style=" stroke:none;fill-rule:nonzero;fill:rgb(55.294118%,42.352941%,62.352941%);fill-opacity:1;" d="M 153.125 169.5625 L 153.125 180.46875 C 153.125 201.574219 170.296875 218.75 191.40625 218.75 C 212.515625 218.75 229.6875 201.574219 229.6875 180.46875 L 229.6875 169.53125 C 229.6875 157.296875 236.714844 147.367188 244.15625 136.855469 C 252.597656 124.929688 262.167969 111.421875 262.167969 92.792969 C 262.160156 53.6875 230.347656 21.875 191.238281 21.875 C 152.125 21.875 120.3125 53.6875 120.3125 92.800781 C 120.3125 111.425781 129.980469 124.949219 138.507812 136.878906 C 146.027344 147.386719 153.125 157.324219 153.125 169.5625 Z M 218.75 180.46875 C 218.75 195.546875 206.484375 207.8125 191.40625 207.8125 C 176.328125 207.8125 164.0625 195.546875 164.0625 180.46875 L 164.0625 175.027344 L 218.75 175 Z M 191.238281 32.8125 C 224.3125 32.8125 251.222656 59.722656 251.222656 92.800781 C 251.222656 107.941406 243.453125 118.917969 235.226562 130.539062 C 228.089844 140.617188 220.746094 150.996094 219.089844 164.0625 L 163.707031 164.0625 C 162.027344 150.976562 154.605469 140.589844 147.398438 130.511719 C 139.097656 118.894531 131.25 107.921875 131.25 92.800781 C 131.25 59.722656 158.160156 32.8125 191.238281 32.8125 Z M 191.238281 32.8125 "/>
<path style=" stroke:none;fill-rule:nonzero;fill:rgb(55.294118%,42.352941%,62.352941%);fill-opacity:1;" d="M 176.601562 107.773438 C 177.667969 108.839844 179.070312 109.375 180.46875 109.375 C 181.867188 109.375 183.269531 108.839844 184.335938 107.773438 C 186.472656 105.632812 186.472656 102.179688 184.335938 100.039062 L 173.398438 89.101562 C 171.257812 86.964844 167.804688 86.964844 165.664062 89.101562 C 163.527344 91.242188 163.527344 94.695312 165.664062 96.835938 Z M 176.601562 107.773438 "/>
</g>
</svg>
