<svg id="Layer_1" data-name="Layer 1" xmlns="http://www.w3.org/2000/svg" xmlns:xlink="http://www.w3.org/1999/xlink" viewBox="0 0 138.76 80.96"><defs><style>.cls-1{mask:url(#mask);filter:url(#luminosity-noclip-4);}.cls-2,.cls-4,.cls-6{mix-blend-mode:multiply;}.cls-2{fill:url(#linear-gradient);}.cls-3{mask:url(#mask-2);filter:url(#luminosity-noclip-5);}.cls-4{fill:url(#linear-gradient-2);}.cls-5{mask:url(#mask-3);filter:url(#luminosity-noclip-6);}.cls-6{fill:url(#linear-gradient-3);}.cls-7{mask:url(#mask-4);}.cls-8{fill:#97dfff;opacity:0.25;}.cls-9{mask:url(#mask-5);}.cls-10{mask:url(#mask-6);}.cls-11{fill:#e8e8e8;}.cls-12{fill:#9e9e9e;}.cls-13{fill:#d6d6d6;}.cls-14{fill:#231717;}.cls-15{fill:#007acc;}.cls-16{fill:#282828;}.cls-17{fill:#caae7a;}.cls-18{fill:#ddd;}.cls-19{fill:#56514c;}.cls-20{fill:#333;}.cls-21{fill:#444045;}.cls-22{fill:#464648;}.cls-23{fill:#0098ff;}.cls-24{fill:#d1ac9d;}.cls-25{fill:#161616;}.cls-26{fill:#070707;}.cls-27{fill:#2a2f38;}.cls-28{fill:#fff;}.cls-29{fill:#30cfd0;}.cls-30{fill:#edd5be;}.cls-31{fill:#e2e2e2;}.cls-32{fill:#685347;}.cls-33{fill:#353535;}.cls-34{fill:#b5b5b5;}.cls-35{fill:#999;}.cls-36{fill:#c9c9c9;}.cls-37{filter:url(#luminosity-noclip-3);}.cls-38{filter:url(#luminosity-noclip-2);}.cls-39{filter:url(#luminosity-noclip);}</style><filter id="luminosity-noclip" x="5.43" y="-8328.95" width="56.2" height="32766" filterUnits="userSpaceOnUse" color-interpolation-filters="sRGB"><feFlood flood-color="#fff" result="bg"/><feBlend in="SourceGraphic" in2="bg"/></filter><mask id="mask" x="5.43" y="-8328.95" width="56.2" height="32766" maskUnits="userSpaceOnUse"><g class="cls-39"/></mask><linearGradient id="linear-gradient" x1="5.43" y1="56.05" x2="61.62" y2="56.05" gradientUnits="userSpaceOnUse"><stop offset="0" stop-color="#4d4d4d"/><stop offset="1"/></linearGradient><filter id="luminosity-noclip-2" x="79.13" y="-8328.95" width="59.63" height="32766" filterUnits="userSpaceOnUse" color-interpolation-filters="sRGB"><feFlood flood-color="#fff" result="bg"/><feBlend in="SourceGraphic" in2="bg"/></filter><mask id="mask-2" x="79.13" y="-8328.95" width="59.63" height="32766" maskUnits="userSpaceOnUse"><g class="cls-38"/></mask><linearGradient id="linear-gradient-2" x1="79.13" y1="72.18" x2="138.76" y2="72.18" xlink:href="#linear-gradient"/><filter id="luminosity-noclip-3" x="62.26" y="-8328.95" width="44.34" height="32766" filterUnits="userSpaceOnUse" color-interpolation-filters="sRGB"><feFlood flood-color="#fff" result="bg"/><feBlend in="SourceGraphic" in2="bg"/></filter><mask id="mask-3" x="62.26" y="-8328.95" width="44.34" height="32766" maskUnits="userSpaceOnUse"><g class="cls-37"/></mask><linearGradient id="linear-gradient-3" x1="62.26" y1="49.95" x2="106.6" y2="49.95" xlink:href="#linear-gradient"/><filter id="luminosity-noclip-4" x="5.43" y="51.45" width="56.2" height="9.2" filterUnits="userSpaceOnUse" color-interpolation-filters="sRGB"><feFlood flood-color="#fff" result="bg"/><feBlend in="SourceGraphic" in2="bg"/></filter><mask id="mask-4" x="5.43" y="51.45" width="56.2" height="9.2" maskUnits="userSpaceOnUse"><g class="cls-1"><path class="cls-2" d="M6.48,59.58c5.13,1.75,10.73,1,16.13.43,11-1.07,22.12-.92,33.09-2.28a10.61,10.61,0,0,0,3.79-1,3.81,3.81,0,0,0,2.13-3.1A2.14,2.14,0,0,0,61,52a3.39,3.39,0,0,0-2.51-.56L33,52.43l-12.55.47c-3.85.15-8-.17-11.84.47a3,3,0,0,0-2.59,1.91C5.67,56.13,4.66,59.58,6.48,59.58Z"/></g></mask><filter id="luminosity-noclip-5" x="79.13" y="63.79" width="59.63" height="16.78" filterUnits="userSpaceOnUse" color-interpolation-filters="sRGB"><feFlood flood-color="#fff" result="bg"/><feBlend in="SourceGraphic" in2="bg"/></filter><mask id="mask-5" x="79.13" y="63.79" width="59.63" height="16.78" maskUnits="userSpaceOnUse"><g class="cls-3"><path class="cls-4" d="M80,68.34a5.39,5.39,0,0,0,.79,6.77c1.59,1.41,3.95,1.78,6.15,2.08l14.34,2c6.13.84,12.32,1.69,18.5,1.32s12.46-2,17.16-5.68a4.9,4.9,0,0,0,1.69-2c.71-1.88-1-3.8-2.92-4.82a22.18,22.18,0,0,0-6.26-2,100.39,100.39,0,0,0-13.87-1.5q-10.2-.57-20.43-.67C89.73,63.77,83.05,63.27,80,68.34Z"/></g></mask><filter id="luminosity-noclip-6" x="62.26" y="45.72" width="44.34" height="8.46" filterUnits="userSpaceOnUse" color-interpolation-filters="sRGB"><feFlood flood-color="#fff" result="bg"/><feBlend in="SourceGraphic" in2="bg"/></filter><mask id="mask-6" x="62.26" y="45.72" width="44.34" height="8.46" maskUnits="userSpaceOnUse"><g class="cls-5"><path class="cls-6" d="M101.51,46.79a9.86,9.86,0,0,1,4.37,1.31,1.53,1.53,0,0,1,.7.87c.17.86-.89,1.41-1.75,1.61-1.63.37-3.28.64-4.93.91C90,53.11,80,54.73,69.92,54c-2.46-.18-6.44-.69-7.48-3.43-1.09-2.9,3-3.53,4.91-3.78a135.48,135.48,0,0,1,22.05-1Q95.48,46,101.51,46.79Z"/></g></mask></defs><title>image-overview</title><g class="cls-7"><path class="cls-8" d="M6.48,59.58c5.13,1.75,10.73,1,16.13.43,11-1.07,22.12-.92,33.09-2.28a10.61,10.61,0,0,0,3.79-1,3.81,3.81,0,0,0,2.13-3.1A2.14,2.14,0,0,0,61,52a3.39,3.39,0,0,0-2.51-.56L33,52.43l-12.55.47c-3.85.15-8-.17-11.84.47a3,3,0,0,0-2.59,1.91C5.67,56.13,4.66,59.58,6.48,59.58Z"/></g><g class="cls-9"><path class="cls-8" d="M80,68.34a5.39,5.39,0,0,0,.79,6.77c1.59,1.41,3.95,1.78,6.15,2.08l14.34,2c6.13.84,12.32,1.69,18.5,1.32s12.46-2,17.16-5.68a4.9,4.9,0,0,0,1.69-2c.71-1.88-1-3.8-2.92-4.82a22.18,22.18,0,0,0-6.26-2,100.39,100.39,0,0,0-13.87-1.5q-10.2-.57-20.43-.67C89.73,63.77,83.05,63.27,80,68.34Z"/></g><g class="cls-10"><path class="cls-8" d="M101.51,46.79a9.86,9.86,0,0,1,4.37,1.31,1.53,1.53,0,0,1,.7.87c.17.86-.89,1.41-1.75,1.61-1.63.37-3.28.64-4.93.91C90,53.11,80,54.73,69.92,54c-2.46-.18-6.44-.69-7.48-3.43-1.09-2.9,3-3.53,4.91-3.78a135.48,135.48,0,0,1,22.05-1Q95.48,46,101.51,46.79Z"/></g><path class="cls-11" d="M72.33,69.07a9.62,9.62,0,0,0,2.48.42,1,1,0,0,0,.51-.12,1,1,0,0,0,.33-.47l4.21-9.46a46.86,46.86,0,0,1-8.65-2.11,1.63,1.63,0,0,0-.75-.13c-.51.08-.8.61-1,1.09-.62,1.38-1.23,2.76-1.83,4.15-.47,1.09-1.6,2.77-1.58,4,0,1,1.17,1.3,2,1.52C69.46,68.33,70.9,68.69,72.33,69.07Z"/><path class="cls-12" d="M74.22,68.38a.31.31,0,0,1-.35-.13,0,0,0,0,0,0,0,.21.21,0,0,1-.32-.07s0,0,0,0-.27.11-.29,0,0,0,0,0a.42.42,0,0,1-.47,0,.65.65,0,0,0-.16-.09c-.08,0-.16,0-.23,0s-.21-.17-.36-.16h-.13a.21.21,0,0,1-.11-.07.61.61,0,0,0-.16-.12,1.29,1.29,0,0,0-.44-.11l-.22,0a2.3,2.3,0,0,1-.26,0,1.51,1.51,0,0,1-.44-.22,2.81,2.81,0,0,0-.39-.19l-.25,0c-.09,0-.12-.11-.2-.16a.33.33,0,0,0-.33,0s0,0,0,0a.28.28,0,0,1,.25,0c.07,0,.1.1.17.15a.23.23,0,0,0,.14,0l.22,0a2.22,2.22,0,0,1,.43.23,1.25,1.25,0,0,0,.41.18l.5.06a1,1,0,0,1,.46.15s.08.1.14.13a.22.22,0,0,0,.18,0,.31.31,0,0,1,.22.11.35.35,0,0,0,.18.06.76.76,0,0,1,.26.06,2.39,2.39,0,0,0,.22.12.39.39,0,0,0,.35,0c0,.14.21.1.32,0a.25.25,0,0,0,.35.07.31.31,0,0,0,.37.12S74.23,68.37,74.22,68.38Z"/><path class="cls-12" d="M74.62,67.78a13.36,13.36,0,0,0-1.87-.44l-1-.15a4.56,4.56,0,0,1-.88-.23,1.64,1.64,0,0,0-.89-.22s0,0,0,0a1.68,1.68,0,0,1,.87.22,4,4,0,0,0,.84.23c.62.1,1.23.19,1.84.33a9.17,9.17,0,0,1,1,.27S74.64,67.79,74.62,67.78Z"/><path class="cls-12" d="M74.67,67.2a12.78,12.78,0,0,1-1.76-.37c-.3-.07-.6-.12-.9-.2s-.55-.18-.83-.24a3.55,3.55,0,0,0-.47-.06.9.9,0,0,1-.46,0s0,0,0,0a.5.5,0,0,0,.32,0,1.75,1.75,0,0,1,.46,0,6.38,6.38,0,0,1,.86.22c.3.09.61.15.92.21l.89.22a5.4,5.4,0,0,0,1,.18S74.68,67.2,74.67,67.2Z"/><path class="cls-12" d="M75.19,66.63c-.54-.11-1.09-.21-1.63-.33-.27-.07-.54-.13-.81-.21L72,65.84a3.9,3.9,0,0,0-.84-.16s0,0,0,0a7,7,0,0,1,1.54.39c.52.16,1,.28,1.58.39l.93.19A0,0,0,0,0,75.19,66.63Z"/><path class="cls-11" d="M69.9,71.53a2.08,2.08,0,0,1,1.49.45,2,2,0,0,1,.41,1,27.05,27.05,0,0,1,.52,6.53.83.83,0,0,1-.11.49.93.93,0,0,1-.76.24c-4.81-.07-9.61-.37-14.41-.66a1,1,0,0,1-.73-.26.93.93,0,0,1-.12-.55q-.06-2.14,0-4.29c0-.77-.34-3,.45-3.37a6.1,6.1,0,0,1,2.08.06l2.22.07,4.28.14Z"/><path class="cls-12" d="M69.9,72.93c0,.14,0,.28-.05.42s0,0,0,0l.11.08a.75.75,0,0,0-.2.26c0,.05,0,.09-.06.13a.67.67,0,0,0-.06.12.35.35,0,0,0,.12.4.24.24,0,0,0-.17.25c0,.13.19.12.1.29a.32.32,0,0,0,0,.23,2.41,2.41,0,0,1,.08.25c0,.15-.06.25-.15.37s-.08.38-.06.58a.91.91,0,0,1,0,.23,1.29,1.29,0,0,0,0,.19.25.25,0,0,0,0,.15l0,0s-.06.06-.08.07h0a.38.38,0,0,1,.1.12c0,.06,0,.18-.1.15s0,0,0,0,.11.09.13.15,0,0,0,.05l-.08,0s0,0,0,0,.12.24,0,.21h0s0,0,0,0h0a.13.13,0,0,1,.11.18.18.18,0,0,1-.18.12s0,0,0,0a.49.49,0,0,1,.15.26c0,.17-.17.16-.27.13s0,0,0,0l.08.11s0,0,0,0l0-.08c.08,0,.22,0,.26-.08s-.06-.26-.13-.34a.19.19,0,0,0,.18-.15.16.16,0,0,0-.08-.18.15.15,0,0,0,.11-.11.12.12,0,0,0-.08-.13l.09,0s0,0,0,0a.46.46,0,0,0-.13-.18.14.14,0,0,0,.1-.12.18.18,0,0,0,0-.12s-.06,0-.06-.06,0-.06.07-.07v0c-.15-.1,0-.32,0-.47a1.56,1.56,0,0,0,0-.31.55.55,0,0,1,.08-.39c.08-.1.17-.18.17-.31a.61.61,0,0,0-.07-.24.8.8,0,0,1,0-.15.4.4,0,0,1,.07-.18c0-.11,0-.15-.08-.21a.18.18,0,0,1,.15-.28s0,0,0,0a.33.33,0,0,1-.13-.45l.07-.08s0-.06,0-.09a.62.62,0,0,1,.21-.27s0,0,0,0l-.07-.07s-.06,0,0-.1,0-.23,0-.35S69.9,72.9,69.9,72.93Z"/><path class="cls-12" d="M70.64,73.43s0,.15,0,.2a.17.17,0,0,0,0,.12c.07.15,0,.29-.09.44a2.92,2.92,0,0,0,0,.51c0,.19,0,.38,0,.57s0,.37,0,.56a3.91,3.91,0,0,0,0,.48,1,1,0,0,1-.07.52,4.56,4.56,0,0,0-.18.52c0,.08,0,.17-.07.26s0,.19,0,.28-.09.25,0,.33h0s0,0,0,0,.08,0,.12,0,0,0,0,0,0-.19,0-.28a.41.41,0,0,0,0-.19.58.58,0,0,1,0-.26l.09-.29c0-.17.12-.33.17-.5a1,1,0,0,0,0-.43,5.76,5.76,0,0,1,0-1.1c0-.19,0-.39,0-.58a1.29,1.29,0,0,1,.07-.51.68.68,0,0,0,.07-.2.26.26,0,0,0-.05-.17c0-.09,0-.13,0-.21s0-.06,0-.07S70.63,73.43,70.64,73.43Z"/><path class="cls-12" d="M68.71,76.22a4.36,4.36,0,0,0,0,.51,3.27,3.27,0,0,1,0,.54c0,.32-.22.64-.13.94,0,0,0,0,0,0-.09-.29.11-.6.13-.9a2.58,2.58,0,0,0,0-.48,4.91,4.91,0,0,1,0-.55,10.28,10.28,0,0,1,.06-1.1c0-.37,0-.73.08-1.09a1.37,1.37,0,0,1,.16-.59c.06-.11.13-.24.07-.35s0,0,0,0-.06.3-.12.42a1.34,1.34,0,0,0-.11.48c0,.36,0,.72-.08,1.09S68.71,75.86,68.71,76.22Z"/><path class="cls-12" d="M68.35,77.48c0-.18,0-.36,0-.53,0-.36,0-.72,0-1.08a8.83,8.83,0,0,1,.11-1,3.15,3.15,0,0,0,0-1.06s0,0,0,0a3,3,0,0,1,0,1,8.36,8.36,0,0,0-.12,1,8,8,0,0,0,0,1c0,.17,0,.33,0,.5a1.94,1.94,0,0,0,0,.24c0,.1,0,.2-.07.29s-.23.16-.26.32,0,.3-.09.44,0,0,0,0a.72.72,0,0,0,.08-.35.5.5,0,0,1,0-.21,1.45,1.45,0,0,1,.18-.17A.33.33,0,0,0,68.35,77.48Z"/><path class="cls-12" d="M67.7,75.82c0,.51-.15,1-.2,1.53a2.44,2.44,0,0,0,0,.81s0,0,0,0a3.87,3.87,0,0,1,.08-1.51c0-.25.08-.5.1-.75a5.55,5.55,0,0,0-.06-.82,3.87,3.87,0,0,1,0-1s0,0,0,0a3.18,3.18,0,0,0,0,.87A6.71,6.71,0,0,1,67.7,75.82Z"/><path class="cls-12" d="M67.12,75.05a8.22,8.22,0,0,0,.07-1,0,0,0,1,0,0,0A12.52,12.52,0,0,1,67,75.79c-.09.6-.17,1.2-.2,1.81,0,.34-.05.69-.05,1a0,0,0,1,0,0,0c0-.61,0-1.22.11-1.83S67.05,75.64,67.12,75.05Z"/><path class="cls-12" d="M66.52,74.45s0,0,0,0c0,.27,0,.54,0,.81s-.07.53-.11.79c-.08.54-.18,1.08-.23,1.62,0,.3,0,.61,0,.91,0,0,0,0,0,0a25,25,0,0,1,.39-3.22A7,7,0,0,0,66.52,74.45Z"/><path class="cls-12" d="M65.78,74.78s0,0,0,0c-.13,1.11-.26,2.22-.45,3.33,0,.32-.11.63-.17,1,0,0,0,0,0,0,.23-1.1.37-2.22.5-3.33C65.71,75.41,65.75,75.09,65.78,74.78Z"/><path class="cls-13" d="M66,69.27a1.14,1.14,0,0,1,.87.29,1.57,1.57,0,0,1,.25,1A47.42,47.42,0,0,1,67,76.93q-7.66-.47-15.36-.5c0-1.67,0-3.34,0-5,0-1.13-.3-2.5.89-2.73a18.17,18.17,0,0,1,4.16.16L61,69Z"/><path class="cls-11" d="M51,58.37a4.31,4.31,0,0,1,1.25-.43,3.52,3.52,0,0,1,1.36.15c2.73.71,5.18,2.35,8,2.83.55.1,1.21.22,1.39.74a1.42,1.42,0,0,1-.15,1c-.67,1.65-1.34,3.31-2,5C56,66.45,51,66.12,46.41,64.34c-1.35-.52-4.49-2.17-2-3.4C46.53,59.92,48.89,59.36,51,58.37Z"/><path class="cls-14" d="M80.59,73.08a9.94,9.94,0,0,1-3.31,0c-.4-.09-.87-.34-.85-.75s.34-.56.64-.7a13.13,13.13,0,0,1,1.47-.57l4.38-1.53a2.11,2.11,0,0,1,1.91,0c.87.66,1.38,2.6.22,3.15a5,5,0,0,1-1.6.1C82.49,72.83,81.54,73,80.59,73.08Z"/><path class="cls-15" d="M21.17,16c4.17-.86,8.72-.61,12.38,1.56,6.83,4,8.66,13.18,14.37,18.69,2.55,2.47,5.82,4.13,8.3,6.66s4.09,6.56,2.33,9.65c-1.57,2.75-5.1,3.62-8.26,3.89-5.7.48-11.52-.14-17.11,1.09-2,.44-4,1.12-6,1.45-5.58.9-11.2-.85-16.56-2.63a5.26,5.26,0,0,1-2.76-1.61C7.32,54,3.18,45.42,3.08,44.53,2.18,37,5.32,37,6.76,29.45c.52-2.7,1.28-7.17,3.35-9.15C12.5,18,18,16.66,21.17,16Z"/><path class="cls-16" d="M45,47.48a4,4,0,0,0-2.76-2.61,9.83,9.83,0,0,0-1-.3,9.66,9.66,0,0,0,3-1.59c.25-.19,0-.6-.24-.42a9,9,0,0,1-1.89,1c-.63.23-1.31.29-1.93.53a.3.3,0,0,0-.18.17,9.82,9.82,0,0,1-1.59-.51c-1.79-.76-3.18-2.3-5-3a10.42,10.42,0,0,1-2.05-.89c-1.13-.79-1.51-2.25-2.16-3.47a8,8,0,0,0-7.73-4.09l-2-1.41a15.25,15.25,0,0,0-4.32,7.51,1.74,1.74,0,0,0,0,.22c-.39-.33-.74-.7-1.12-1-.11-.1-.28.06-.17.17A5.2,5.2,0,0,1,15,39.1,6.14,6.14,0,0,0,15,40.38a13.16,13.16,0,0,0-2.45-1.69.2.2,0,0,0-.2.35,12.91,12.91,0,0,1,2.88,2.38,3,3,0,0,0,.22.44,20.88,20.88,0,0,1,1.32,1.66,2.66,2.66,0,0,1,.24.82,13,13,0,0,0-5.56-1,.2.2,0,0,0,0,.4A14,14,0,0,1,17,45.14a16,16,0,0,0-.28,3.16,15.73,15.73,0,0,1-2.66,1c-.13,0-.07.21,0,.19a15.61,15.61,0,0,0,2.74-.73,1.87,1.87,0,0,0,.36.58,3.35,3.35,0,0,0,1.5.82,29,29,0,0,0,3.18.81,6.32,6.32,0,0,1-1.41,1.95c-.2.18.09.46.29.29a7,7,0,0,0,1.68-2.14,26.64,26.64,0,0,0,7.46.22l1.23-.17c.21.35.41.69.6,1s.49,0,.36-.21-.32-.59-.47-.89c.7-.1,1.39-.19,2.09-.23a14.51,14.51,0,0,0,3.91,2c.29.1.4-.35.12-.46a14.09,14.09,0,0,1-2.8-1.56c1.38.07,2.74.42,4.12.58a6.93,6.93,0,0,0,4.08-.51A3.34,3.34,0,0,0,45,47.48Z"/><path class="cls-17" d="M58.54,13.62a1.17,1.17,0,0,0-1.13.08,2.86,2.86,0,0,0-.82.84c-.16.21-.4.54-.66.93,0-.24-.06-.47-.1-.7s-.2-.61-.47-.56-.28.44-.22.72l.3,1.3a12.52,12.52,0,0,1-3.15,3.18,5.31,5.31,0,0,0,1.62,1.4.49.49,0,0,0,.24.08.59.59,0,0,0,.33-.17A18.21,18.21,0,0,0,57,18L57,18a18.94,18.94,0,0,0,1.45-1.89,3,3,0,0,0,.57-1.25A1.16,1.16,0,0,0,58.54,13.62Z"/><path class="cls-17" d="M32.49,36.56a2.4,2.4,0,0,1,2,.77.42.42,0,0,1,.08.21c0,.21-.27.3-.48.33l-3.82.53a2.36,2.36,0,0,1-1,0c-1-.26-.64-1.17,0-1.59S31.73,36.54,32.49,36.56Z"/><path class="cls-18" d="M53.14,20.21a.5.5,0,0,1,0-.12l-.26.05a.94.94,0,0,1-1.12-.64,18.23,18.23,0,0,1-9.37,2.66c-1.77,0-4.07-1-5.74-.54-2.23.57-2.74,3.08-2.66,5,0,.65.15,1.43.76,1.7a1.81,1.81,0,0,0,1.15,0l6.37-1.47a32.25,32.25,0,0,0,5.3-1.56A25.18,25.18,0,0,0,54,21,1.06,1.06,0,0,1,53.14,20.21Z"/><path class="cls-17" d="M27.71,13.19c-.5-2.91-.38-6.37,1.94-8.2a3.81,3.81,0,0,1,1.55-.76,4.17,4.17,0,0,1,4.28,2.25,9,9,0,0,1,.8,5,23,23,0,0,1-.58,3.61,6,6,0,0,1-2,3.57C30.2,21.27,28.13,15.6,27.71,13.19Z"/><path class="cls-11" d="M28.68,20.39c-1.35-.33-2.58-1.14-4-1.17a4.83,4.83,0,0,0-4.23,3.1,14.32,14.32,0,0,0-.86,5.46c-.08,3.33,0,7,2.33,9.42,1.37,1.39,3.29,2,4.88,3.18a3.26,3.26,0,0,0,1.55.8,2.76,2.76,0,0,0,1.22-.28A37.45,37.45,0,0,0,34,38.8a3.47,3.47,0,0,0,1.27-1,3.9,3.9,0,0,0,.52-1.43Q36.89,31.2,38,26C39.66,18.37,33.17,21.47,28.68,20.39Z"/><path class="cls-19" d="M43.48,50.43c.45,0,1-.17,1-.62a1,1,0,0,0-.43-.68c-1.15-1-7.66-6.43-8.22-2.77C35.49,48.9,41.7,50.41,43.48,50.43Z"/><path class="cls-19" d="M19.25,48a1.56,1.56,0,0,0-.4.22,1,1,0,0,0,.26,1.48,2.53,2.53,0,0,0,1.68.25c1.34-.14,9.66-2.34,6.56-4.34-1.08-.7-2,.13-3,.55C22.65,46.86,20.91,47.32,19.25,48Z"/><path class="cls-20" d="M32.34,39.19a7.57,7.57,0,0,1,2-1.69A7.82,7.82,0,0,1,37,36.89l4.78-.5c1.85-.2,4-.26,5.2,1.17A1.88,1.88,0,0,1,47.47,39c-.13.85-1,1.4-1.71,1.84a53.59,53.59,0,0,1-5.49,3c-1.64.72-3.37,1.27-5.08,1.83s-6.82,3.25-8.41,1.72C24.79,45.43,31,40.66,32.34,39.19Z"/><path class="cls-20" d="M16.58,40.22c-.62-.75-1.2-1.77-.75-2.63a1.91,1.91,0,0,1,.87-.79,5.12,5.12,0,0,1,3.92,0c1.27.43,2.43,1.12,3.68,1.6,3.2,1.24,5.6,1.53,8.22,3.75,1.19,1,7.12,3.39,5.07,5.2a3.48,3.48,0,0,1-1.8.68C29,49.08,21,45.35,16.58,40.22Z"/><path class="cls-18" d="M26,38c.08-.42.32-1.11.1-1.51a.91.91,0,0,1-.06-.78A40.34,40.34,0,0,1,22,34.84a1.9,1.9,0,0,1-1.06-.52,2.2,2.2,0,0,1-.09-2,83.3,83.3,0,0,1,3.72-10.46,2.44,2.44,0,0,0,.29-1.17A1.55,1.55,0,0,0,24,19.56a2.58,2.58,0,0,0-2.47.26c-2.09,1.34-3.62,4.78-4.29,7.19s-1.63,6.41-.45,8.81c.94,1.9,3.21,2.55,5.24,2.83a34.16,34.16,0,0,0,3.79.3A5.52,5.52,0,0,1,26,38Z"/><path class="cls-21" d="M39.37,3.36a2.68,2.68,0,0,1-.07-.27.64.64,0,0,1,0-.11.53.53,0,0,1-.08-.23,3.41,3.41,0,0,0-.37-.48l0,0a1.82,1.82,0,0,0-.52-.39,3,3,0,0,0-2-.1c-1.21.29-2.19,1-3.37,1.39L29,4.39c-1.35.44-2.92,1.14-3.15,2.62a4.38,4.38,0,0,0,.26,1.82c.87,3,1.73,5.93,2.6,8.89.17.6.6,1.35,1.16,1.15s.45-1.12.21-1.73A23.19,23.19,0,0,1,28.3,12.8c-.18-1.05.41-2.24,1.2-.77.21-.79.32-1.62.48-2.42a1.28,1.28,0,0,1,.27-.69,1,1,0,0,1,.59-.25c1.95-.33,4.07.41,5.85-.51a4.65,4.65,0,0,0,.52-.34,2.79,2.79,0,0,0,1.11-.66A4,4,0,0,0,39.39,5a5.1,5.1,0,0,0,.07-.87.5.5,0,0,1,0-.13C39.45,3.76,39.41,3.56,39.37,3.36Z"/><path class="cls-22" d="M29,37.68a2,2,0,0,0,1.25.24l18-.46A4.84,4.84,0,0,0,50.5,37a4.71,4.71,0,0,0,1.37-1.37,70.53,70.53,0,0,0,5.37-8.31c.14-.26.28-.57.14-.82s-.46-.28-.74-.3q-6-.36-12-.37a3.13,3.13,0,0,0-1.49.25,3.07,3.07,0,0,0-1,1.2,62.48,62.48,0,0,0-4.56,9.29,35.06,35.06,0,0,0-5.61-.15C31.49,36.46,27.41,36.55,29,37.68Z"/><path class="cls-18" d="M54.35,20.64a.3.3,0,0,1,.14.25.22.22,0,0,1-.08.15l-.49.63a.32.32,0,0,1-.12.11.42.42,0,0,1-.19,0c-.54-.22-3.31-1.62-2.42-2.36S53.81,20.13,54.35,20.64Z"/><path class="cls-17" d="M33.93,38a1.63,1.63,0,0,0,.72-.21,1,1,0,0,0,.05-1.54.64.64,0,0,0-.37-.13c-.34,0-.67.33-1,.16A5.46,5.46,0,0,0,34,34.7a1.47,1.47,0,0,0-1.22.19c-.22.21-.29.53-.47.77a2.43,2.43,0,0,1-1.56.67c-.94.2-1.59,1.2-.56,1.77C30.93,38.54,33.07,38.06,33.93,38Z"/><path class="cls-17" d="M27.17,38.53c.55,0,1.37-.09,1.92-.07a9.1,9.1,0,0,0,2.2-.24,0,0,0,0,0,0,0s0,0,0,0a2.88,2.88,0,0,0,0-1,8,8,0,0,0-.16-1,44.69,44.69,0,0,1-4.91.21l-.09,0s0,.07-.07.12l-.22.78c-.06.21-.62.93-.35,1a1.32,1.32,0,0,0,.34,0l.57,0Z"/><path class="cls-18" d="M26.59,35.52c-.43.12-.91-.27-1.31-.08a1,1,0,0,0-.44.72,9.75,9.75,0,0,0-.26,2.64.58.58,0,0,0,.15.43.63.63,0,0,0,.33.06H26a.52.52,0,0,0,.37-.1.51.51,0,0,0,.13-.31c.16-1,.28-2.06.34-3.1Z"/><path class="cls-16" d="M48.66,31.77a8.93,8.93,0,0,0-.07-1.27c-.11-.6-.61-.1-.84.14a14.69,14.69,0,0,1-1.31,1.53h0a.19.19,0,0,0-.17.17v0a.16.16,0,0,0,.17.13,7.61,7.61,0,0,1,1.35,0c.2,0,.61.17.81,0S48.67,32,48.66,31.77Zm-.52.5a8.41,8.41,0,0,0-1.42-.11,4.52,4.52,0,0,0,.63-.61l.43-.51a3.58,3.58,0,0,1,.27-.29c.09-.09.13-.19.23-.11s.06.7.07.87,0,.29,0,.44S48.48,32.32,48.14,32.27Z"/><path class="cls-17" d="M30.69,24.86a3.58,3.58,0,0,1,.48.93c.78-1.43.53-3.24,1.22-4.72a.37.37,0,0,0,.06-.21c0-.16-.23-.2-.39-.2-.7,0-1.41-.05-2.1,0s-.61.4-.4,1A20.14,20.14,0,0,0,30.69,24.86Z"/><path class="cls-18" d="M29.85,22.68a.24.24,0,0,1-.07.15.24.24,0,0,1-.19,0A2.79,2.79,0,0,1,28,21.35a1.29,1.29,0,0,1-.25-.88.37.37,0,0,1,.19-.29.53.53,0,0,1,.33,0c.51.09,1.6.32,1.92.77S30,22.19,29.85,22.68Z"/><path class="cls-18" d="M31.57,21.16a.38.38,0,0,1,0-.21.38.38,0,0,1,.18-.15,7.91,7.91,0,0,1,1.44-.5.81.81,0,0,1,.65.05.6.6,0,0,1,.19.51,1.55,1.55,0,0,1-.48,1,4.78,4.78,0,0,1-.93.67c-.43.25-.61.5-.85,0A5.61,5.61,0,0,1,31.57,21.16Z"/><path class="cls-23" d="M62.32,39.68c.75-1.59,2.28-2.66,3.43-4,2.68-3.08,3.3-7.45,5.54-10.85s5.81-5.53,8.79-8.25a28.15,28.15,0,0,0,4.55-5.31c1.11-1.67,2.15-3.55,4-4.42a9.38,9.38,0,0,1,3.61-.68c1.91-.11,4-.18,5.6.84A6.92,6.92,0,0,1,99.91,9.3c2.48,3.95,2.81,8.84,4.26,13.27.87,2.69,2.16,5.23,3,7.94a23.07,23.07,0,0,1,.35,11.58,7.05,7.05,0,0,1-.78,2.14,8.16,8.16,0,0,1-2.57,2.31c-3.22,2.17-6.57,4.4-10.39,5.07-3.16.56-6.4,0-9.61,0-3.76,0-7.48.82-11.24.77-3.18-.05-7.76-.84-9.75-3.67C61.68,46.67,61.3,41.85,62.32,39.68Z"/><path class="cls-16" d="M98,35.31a13.1,13.1,0,0,0-6.2.81L91.49,36a4.19,4.19,0,0,1-1.19-.79,3,3,0,0,1-.62-1.13,19.47,19.47,0,0,1,8-7.86c.17-.09,0-.35-.15-.26a19.67,19.67,0,0,0-8.11,7.31c0-.09,0-.18-.08-.27a39,39,0,0,1,4.18-8.56c.08-.13-.12-.24-.21-.12A29.61,29.61,0,0,0,89,32a7,7,0,0,0-.65-1.12,2.72,2.72,0,0,0-2.09-1.36,2.45,2.45,0,0,0-1.4.53,6.61,6.61,0,0,0-.42-1.33c-.12-.25-.48,0-.37.22a5.13,5.13,0,0,1,.38,1.43l-.65.59a8.24,8.24,0,0,0-1-2.95c-.11-.19-.4,0-.3.18a8.32,8.32,0,0,1,.84,3.23l-.75.77a36.09,36.09,0,0,0-2.91-7.38c-.09-.18-.36,0-.27.16a34,34,0,0,1,2.69,7.71A6.94,6.94,0,0,1,80.34,34c-.68.34-1.43.52-2.12.84a3.84,3.84,0,0,0-.59.33A9.19,9.19,0,0,1,74,32.66c-.08-.1-.22,0-.14.14a9.61,9.61,0,0,0,3.33,2.76,2.16,2.16,0,0,0-.5.8c0,.11-.06.21-.08.3a18.8,18.8,0,0,1-4.9-.61.08.08,0,0,0,0,.14,12,12,0,0,0,4.9,1c0,1.27,1.78.93,2.74.81l.2,0A8.73,8.73,0,0,0,76,41.58c-.09.18.18.34.27.16a8,8,0,0,1,4.53-3.83,30.78,30.78,0,0,1,4,.61c.56.1,1.13.18,1.7.25a5.21,5.21,0,0,1,.68,3.1c0,.14.23.17.25,0a5.6,5.6,0,0,0-.36-3.06c1.23.14,2.47.22,3.71.27A10.58,10.58,0,0,1,93,42.25c.1.19.44,0,.36-.15a11.31,11.31,0,0,0-1.73-3l.77,0a3,3,0,0,0,1.41-.2,1.06,1.06,0,0,0,.62-1.17,1.52,1.52,0,0,0-.89-.79l-1-.47A12.87,12.87,0,0,1,98,35.78C98.31,35.8,98.3,35.34,98,35.31Z"/><path class="cls-20" d="M82,12.26c-.08-.26-.1-.53-.18-.79a3.63,3.63,0,0,0-.64-1.13,2.93,2.93,0,0,0-.53-.58.83.83,0,0,0-.74-.13l-.28.28a2.43,2.43,0,0,0,.26,1.51,3.23,3.23,0,0,1,.37,1.5l.28-.42a2.48,2.48,0,0,0,2.29,1.16A4,4,0,0,1,82,12.26Z"/><path class="cls-20" d="M89.66,12.63a3.48,3.48,0,0,1-.69-.29,2.72,2.72,0,0,1-1.66,1.76c.38-.45.3-1.11.44-1.69a4.19,4.19,0,0,1,.38-.9c.16-.3.32-.59.49-.88s.19-.34.3-.51.2-.4.33-.45c.31-.15,0,.6,0,.74A4,4,0,0,0,89.66,12.63Z"/><path class="cls-24" d="M88.84,7.05a4.2,4.2,0,0,0-8.38,0,3.88,3.88,0,0,0,.15,1,2.26,2.26,0,0,1,0,.26,11.38,11.38,0,0,0,.17,2.33,5.36,5.36,0,0,0,2.53,3.72,3.2,3.2,0,0,0,1.62.49,3.12,3.12,0,0,0,2-.9c1.79-1.65,1.94-4.12,1.82-6.46A3.59,3.59,0,0,0,88.84,7.05Z"/><path class="cls-20" d="M90,5.82a4.21,4.21,0,0,1,.52-1.49c.19-.5.13-1.21-.38-1.37a2.47,2.47,0,0,0-.61,0,2.54,2.54,0,0,1-1.74-1.17A3.37,3.37,0,0,0,86.14.38C85.58.23,85,.4,84.43.25,84.21.19,84,.08,83.78,0a2.13,2.13,0,0,0-1.67.52,10.89,10.89,0,0,1-1.44,1.09c-.38.19-.79.29-1.18.45a1.69,1.69,0,0,0-.92.82,5,5,0,0,0-.12,1.23A6.52,6.52,0,0,1,78,5.55a1.77,1.77,0,0,0,0,1.44c.15.27.41.48.57.75.51.85-.07,2.17.68,2.83A3.69,3.69,0,0,0,80,11a4.57,4.57,0,0,1,1.42,1.35,23.35,23.35,0,0,1-.63-3.21,3.12,3.12,0,0,1,0-1.36c.14-.43.32-.71.77-.74a1.08,1.08,0,0,0,.36,0c.38-.16.19-.74.34-1.13s.64-.49,1-.48a2.12,2.12,0,0,0,1.32-.16c.36-.25.32-.52.79-.49a2.81,2.81,0,0,1,2.07,1.18c.1.24.12.54.33.69s.33.09.47.19a.77.77,0,0,1,.23.54,15.45,15.45,0,0,1-.41,5.24c.91-.74,1-2,1.59-3.05.19-.33.47-.61.64-.95a2,2,0,0,0,.13-1.43A5.49,5.49,0,0,1,90,5.82Z"/><path class="cls-25" d="M75.6,30.58c.73-3.34-.22-6.3.51-9.64a7.84,7.84,0,0,1,3.32-4.41,19.79,19.79,0,0,1,3.35-.73,17,17,0,0,1,5.47,0,7,7,0,0,1,3,1.08A8.43,8.43,0,0,1,94,21.4,45.82,45.82,0,0,1,96.3,37.48c-.07,1.57-.34,3.32-1.57,4.29a5.51,5.51,0,0,1-2.4.93,31.31,31.31,0,0,1-14.21-.49c-1.12-.3-4.15-1-4.2-2.56,0-.84.72-1.88,1-2.66.36-1,.66-2,.92-3S75.34,31.75,75.6,30.58Z"/><path class="cls-26" d="M79.31,22.69v0c.15-.56.33-1.12.43-1.69a6.3,6.3,0,0,0,0-2.29,2.51,2.51,0,0,0-.33-.94,3,3,0,0,0-1.26-.92A1.39,1.39,0,0,0,77,16.65a1.12,1.12,0,0,0-.46.48C75.83,18.39,76,20,76,21.41a12.86,12.86,0,0,1-.18,1.52A9.42,9.42,0,0,1,79.31,22.69Z"/><path class="cls-19" d="M72.36,49c-.45,0-1-.17-1-.62a1,1,0,0,1,.43-.68c1.16-1,7.66-6.43,8.22-2.77C80.36,47.48,74.14,49,72.36,49Z"/><path class="cls-19" d="M96.6,46.61a1.36,1.36,0,0,1,.39.22,1,1,0,0,1-.25,1.48,2.54,2.54,0,0,1-1.68.25c-1.34-.14-9.67-2.34-6.57-4.34,1.08-.69,2,.13,3,.55C93.19,45.44,94.93,45.9,96.6,46.61Z"/><path class="cls-27" d="M83.5,37.77a7.35,7.35,0,0,0-2-1.68,7.6,7.6,0,0,0-2.67-.62L74,35c-1.85-.2-4-.26-5.2,1.17a1.92,1.92,0,0,0-.46,1.46c.13.85,1,1.4,1.71,1.84a53.59,53.59,0,0,0,5.49,3,53.13,53.13,0,0,0,5.09,1.83c1.74.56,6.81,3.26,8.4,1.72C91.05,44,84.9,39.24,83.5,37.77Z"/><path class="cls-27" d="M99.26,38.8c.62-.75,1.2-1.77.75-2.63a1.86,1.86,0,0,0-.87-.79,5.09,5.09,0,0,0-3.91,0c-1.27.43-2.44,1.12-3.69,1.6-3.19,1.24-5.59,1.53-8.21,3.75-1.2,1-7.12,3.39-5.08,5.2a3.58,3.58,0,0,0,1.8.69C86.8,47.66,94.89,43.93,99.26,38.8Z"/><path class="cls-26" d="M88.91,30.61c1.16-1.16,2.38-2.47,2.53-4.1a7.82,7.82,0,0,0-.1-1.6,40.14,40.14,0,0,0-.84-4.78,7.56,7.56,0,0,1-.34-1.69,2.11,2.11,0,0,1,.51-1.59,2.09,2.09,0,0,1,2.71,0,5.05,5.05,0,0,1,1.47,2.53A10.56,10.56,0,0,1,95.36,24a10.3,10.3,0,0,1-.52,2,11.87,11.87,0,0,1-5.79,6.84,1.53,1.53,0,0,1-1.13.18c-.5-.18-1-.86-.53-1.22S88.45,31.08,88.91,30.61Z"/><path class="cls-28" d="M85.91,23.77a20.45,20.45,0,0,1-.69-2.88c-.08-.51-.14-1-.19-1.53,0-.16,0-.36,0-.56a.72.72,0,0,0,.17-.22c.21-.36.41-.73.59-1.11a.26.26,0,0,0,0-.24c0-.09-.17-.1-.26-.1-.38,0-1.3-.17-1.57.16s.21.94.4,1.23a1,1,0,0,0,.23.26c-.61,1.63-1.05,3.36-1.58,5A2.89,2.89,0,0,0,82.83,25a2.7,2.7,0,0,0,.31.89q.47.93,1,1.83a8.3,8.3,0,0,1,1.46-2.51,1.67,1.67,0,0,0,.39-.61A1.52,1.52,0,0,0,85.91,23.77Z"/><path class="cls-11" d="M90.53,21.79l0,0h0l-.09-.08-.25-.12-.08,0c-5.13.41-10,.46-15.28.58l-.06,0a.87.87,0,0,1-.2.23.17.17,0,0,0-.06.06l0,.15c.16,1.21.25,4.48.28,4.92.13,1.83,0,3.73.29,5.54.11.9.29,1.51,1.21,1.54s1.86-.08,2.78-.13c3.73-.2,7.9.19,11.63-.17.5-3.7.15-8.57-.08-12.37Z"/><path class="cls-28" d="M84.21,29a19.23,19.23,0,0,0-1.43-2.69.21.21,0,0,0-.33,0c-.44.85-.83,1.72-1.18,2.6a.28.28,0,0,0,.09.53c.88,0,1.76,0,2.64-.11A.25.25,0,0,0,84.21,29ZM81.58,29c.35-.7.71-1.4,1.08-2.09a14.65,14.65,0,0,1,.94,2.05C82.93,29,82.26,29,81.58,29Z"/><path class="cls-24" d="M81,35.09a2.67,2.67,0,0,0,.84.22A1.76,1.76,0,0,0,83,35.24c.43-.24.58-.76.88-1.15a4,4,0,0,0,.45-.55A1,1,0,0,0,83.19,32a1.88,1.88,0,0,0-.69.35l-1.77,1.18a1,1,0,0,0-.4.4C80.16,34.34,80.64,34.92,81,35.09Z"/><path class="cls-12" d="M97.55,51.17h0a0,0,0,0,0-.05,0s0,0,0,.05h0S97.58,51.21,97.55,51.17Z"/><path class="cls-29" d="M131,34.37a4.09,4.09,0,0,0-1.49-1.67,3.6,3.6,0,0,0-1.9-.29,12.08,12.08,0,0,0-4.54,1.26,39.18,39.18,0,0,1-1.72,7.63c-.76,2.27-1.67,4.5-2.63,6.69-.26.91-.49,1.83-.83,2.72-.54,1.39-1.15,2.75-1.78,4.09a10.58,10.58,0,0,1-6.42,5.71,8.92,8.92,0,0,1-5.29-.19c-1.07-.39-2.06-.92-3.07-1.4a6.17,6.17,0,0,0-.74-.19l-.72,0a1.42,1.42,0,0,0-.41-.14,10.09,10.09,0,0,0-4.71.74,23,23,0,0,0-4.13,1.8A7.92,7.92,0,0,0,88,63.38a6.21,6.21,0,0,0-1.32,1.74c-.8,1.63-.71,4.27,1.09,5.24,2.22,3,7.66,4.6,10.59,5.34,9.31,2.35,19.14,4.7,28.38,2.11,3.63-1,7.24-3,9-6.29,1.32-2.45,1.47-5.34,1.5-8.13C137.37,53.37,136.13,43,131,34.37Z"/><path class="cls-16" d="M124.74,49.72a13.17,13.17,0,0,0-4.9,3.08l1-2.86.42-1.19a25.14,25.14,0,0,1,2.24-2.26c.17-.14-.08-.38-.25-.24-.56.46-1.13,1-1.66,1.48a14.64,14.64,0,0,0,.6-3c-.36-.15-.69.25-.86.6-1.22,2.38-2.08,4.94-3.28,7.34a14,14,0,0,1-5.14,6,9.36,9.36,0,0,1-8.25.52c-1.47-.62-2,.18-.84,1.22a2.64,2.64,0,0,1,.5,2.57,14.64,14.64,0,0,0-.65,2.67l1-3.88a.83.83,0,0,1,.25-.47.85.85,0,0,1,.61-.1,8.07,8.07,0,0,1,4.11,1.19,7.46,7.46,0,0,1,1.7,2c.62.93,1.22,1.88,1.8,2.83A12.44,12.44,0,0,0,111,63a.78.78,0,0,1-.17-.45c0-.49.73-.5,1.21-.59.67-.13,1.17-.7,1.82-.95,1.24-.47,2.55.37,3.75.93a9.23,9.23,0,0,0,4.75.78q-3.08-1.38-6-3a5.12,5.12,0,0,0,1.71-2.3c.19-.41.37-.83.53-1.24a14,14,0,0,1,2.1-1.12c1.28-.57,2.68-.85,3.95-1.41.19-.09.05-.35-.13-.32a18.27,18.27,0,0,0-4.11,1.45,11.82,11.82,0,0,0-1.6.88c.23-.61.45-1.21.66-1.82A12.7,12.7,0,0,1,124.8,50C124.94,49.89,124.88,49.67,124.74,49.72Z"/><path class="cls-16" d="M103,60.17c-.19,1.92-1.43,3.3-2.72,4.63-.1.1.06.26.16.16,1.37-1.3,2.85-2.78,2.9-4.79C103.39,60,103.06,60,103,60.17Z"/><path class="cls-30" d="M98.81,39.83c-.17-.23-.35-.52-.66-.53a.66.66,0,0,1-.2,0,.41.41,0,0,1-.17-.12,2.23,2.23,0,0,0-.88-.49,1.11,1.11,0,0,0-.82,0,.72.72,0,0,0-.39.85,1.41,1.41,0,0,0,.66.77c.31.19.66.33,1,.49s.74.41,1.13.57a1.11,1.11,0,0,0,1,0,.67.67,0,0,0,.18-.83c-.08-.11-.28-.18-.39-.26A2,2,0,0,1,98.81,39.83Z"/><path class="cls-31" d="M107.28,43.64c3.21-.82,5.6-3.1,8-5.16a12.21,12.21,0,0,0,2.05-2.08,8.25,8.25,0,0,0,1.1-2.53,3.46,3.46,0,0,0,.17-1.62,1.57,1.57,0,0,0-1.1-1.23,2,2,0,0,0-1.39.21,5.28,5.28,0,0,0-1.09.84l-5.61,5.25a19.31,19.31,0,0,1-2.78,2.3,7.63,7.63,0,0,1-3.49,1.27A5.87,5.87,0,0,1,99.42,40s-.72,1.11-.76,1.26a.69.69,0,0,0,.21.76,6.53,6.53,0,0,0,2.48,1.33A10.33,10.33,0,0,0,107.28,43.64Z"/><path class="cls-30" d="M102.45,50.29l-.9-.16c-.19,0-.42-.11-.45-.3s.09-.28.21-.38a3.45,3.45,0,0,1,1.89-.6,1.91,1.91,0,0,1,.92.07.77.77,0,0,1,.54.69C104.65,50.6,103,50.39,102.45,50.29Z"/><path class="cls-30" d="M118.29,23.33a1.56,1.56,0,0,0-.19-.39l-2.52-4.09a4.56,4.56,0,0,0-2.41-2.33c-1.48-.4-2.88.72-4.22,1.48a41.42,41.42,0,0,1,.85,5.65,13.59,13.59,0,0,0,.48,3.18,3.78,3.78,0,0,0,2,2.39c1.69.67,3.6-.51,4.64-2a8,8,0,0,0,1.34-3.43A1.36,1.36,0,0,0,118.29,23.33Z"/><path class="cls-32" d="M116,22.93a1.05,1.05,0,0,1,.63-1,.83.83,0,0,1,1.05.39c.21.46-.09,1-.24,1.44-.52,1.54.44,3.15,1.36,4.5a9.07,9.07,0,0,1,1.75-3.1c.61-.71,1.37-1.43,1.37-2.36,0-.51-.23-1-.23-1.5,0-.7.44-1.36.41-2.06a2.89,2.89,0,0,0-1.24-1.86,18,18,0,0,0-4.6-2.72,2.13,2.13,0,0,1-1.22-.85,4.22,4.22,0,0,0-.31-.72c-.27-.35-.8-.33-1.24-.28a10.53,10.53,0,0,0-4,1,3.29,3.29,0,0,1-.95.44c-.67.14-1.35-.26-2-.17A2,2,0,0,0,105,15.61a4.87,4.87,0,0,0,.18,2.27l1.5.32a2.05,2.05,0,0,0,.35,2.11,4.89,4.89,0,0,0,2.59-1c.52-.38,1-.89,1.66-.9a3.34,3.34,0,0,1,1.74.82c.55.34,1.39.51,1.77,0A8.54,8.54,0,0,1,116,22.93Z"/><path class="cls-11" d="M121.6,42.8a24.13,24.13,0,0,1-6.4,13.9c-3.21-2.36-7.9-1.75-11.14-4.07a.85.85,0,0,1-.36-.39c-.1-.3.11-.61.31-.86a31.11,31.11,0,0,0,6.44-15.26,5.17,5.17,0,0,1,.78-2.58,4.8,4.8,0,0,1,1.09-.92c1.53-1,3.23-2.69,5-3.34s2.15.65,2.75,2.16A23.83,23.83,0,0,1,121.6,42.8Z"/><path class="cls-33" d="M99.33,58.61l-1.14.15h0Z"/><path class="cls-34" d="M95.83,36.62a.77.77,0,0,1,.58,0,.82.82,0,0,1,.23.43,66.66,66.66,0,0,1,2,9.33,1,1,0,0,1,0,.39.92.92,0,0,1-.19.28L94.8,51.38c-.16.19-.42.4-.64.26a.53.53,0,0,1-.17-.31q-.9-3.06-1.78-6.1L91.86,44c-.28-.95-.55-1.89-.82-2.84-.13-.48-.27-1-.39-1.43-.08-.27-.47-1.16-.36-1.41s1-.42,1.25-.51c.46-.17.92-.32,1.38-.46C93.88,37.07,94.85,36.82,95.83,36.62Z"/><path class="cls-28" d="M93.78,49.78c.13.63.38,1.43.78,1.45.16,0,.29-.13.41-.26l3.2-3.6a1.41,1.41,0,0,0,.42-.77,2.83,2.83,0,0,0-.07-1c-.55-2.95-1.22-5.88-2-8.76l-3.34.86c-.71.19-2.31,0-2.18,1.39s1.13,3.66,1.52,5.13Q93.23,47,93.78,49.78Z"/><path class="cls-34" d="M106.78,47.66l.1-3-7.51,2.16a3.43,3.43,0,0,0-1,.4,5.7,5.7,0,0,0-.94,1c-.69.76-2.15,1.38-2.59,2.3-.7,1.46,2.11.24,2.84,0Q102.26,49.14,106.78,47.66Z"/><path class="cls-34" d="M99.45,50.53c1.7-.48,3.36-1.06,5-1.64l1.93-.67a.69.69,0,0,0,.15-.07c.23-.18,0-.54-.14-.76q-5.88,1.74-11.68,3.66c-.33.11-.71.43-.22.57a5.09,5.09,0,0,0,1.7-.31C97.31,51.09,98.38,50.83,99.45,50.53Z"/><path class="cls-31" d="M110.64,43.68a51.75,51.75,0,0,0,3.77-7.19,6.17,6.17,0,0,1,2.2-2.9,1.05,1.05,0,0,1,.66-.18c.52.07.74.7.8,1.22a13.1,13.1,0,0,1-2.35,8.92,18.41,18.41,0,0,1-7.19,6,10.79,10.79,0,0,1-4.88,1.28c-.2,0,.6-1.75.86-1.94.64-.48,1.54-.71,2.22-1.16A15,15,0,0,0,110.64,43.68Z"/><path class="cls-16" d="M115.27,56.47c-.06-.18-.26-.26-.43-.32-1.74-.63-3.48-1.22-5.24-1.76-1.6-.5-3.51-1.37-5.19-1.34A38.55,38.55,0,0,1,94,51.33a12.55,12.55,0,0,0-3-.55,3.79,3.79,0,0,0-2.76,1,5.5,5.5,0,0,0-1.09,2,129.43,129.43,0,0,0-4.6,15.73l2.85,1.13a25.41,25.41,0,0,1,6.61-10.51c-.48.45,2.33.28,2.72.28,1.38,0,2.06.66,3.49.76,2.29.16,4.46,1.17,6.75,1.41A10.43,10.43,0,0,0,115.18,57,.65.65,0,0,0,115.27,56.47Z"/><path class="cls-35" d="M96.43,38.88c-.33.09-.65.2-1,.3a1.5,1.5,0,0,0-.34.16l-.19.12s-.25.17-.26.07,0,0,0,0l-.11.11c-.07.06-.08.06-.12,0h0a3.36,3.36,0,0,1-.49.27.58.58,0,0,1-.57,0h0a1.4,1.4,0,0,1-.53.3s0,0,0,0a.21.21,0,0,1-.06.1.15.15,0,0,1-.13,0h0c-.06,0,0,.09-.11.09l-.08,0h0l0,0s-.06,0-.14,0,0,0,0,0a.43.43,0,0,1-.09.21.1.1,0,0,1-.06,0s-.08,0-.1-.06l0-.07v0s0,0,0,0a.09.09,0,0,0,0,.15v0s0,0,0,0h0a.09.09,0,0,0,0,0c.16.07.25-.1.3-.22a.06.06,0,0,0,.06,0l.07,0c.06,0,.06-.13.14,0h0a.87.87,0,0,0,.1-.08.54.54,0,0,1,.11-.05c.07,0,.08-.07.12-.12l.09,0,.15-.08c.08-.05.23-.2.32-.17a.83.83,0,0,0,.22,0,1,1,0,0,0,.25-.07,1.91,1.91,0,0,0,.32-.16l.18-.1c.07,0,.08-.05.12,0h0l.19-.16s.07,0,.13,0a1.88,1.88,0,0,0,.24-.14l.22-.14a2.93,2.93,0,0,1,.59-.2l.64-.19A0,0,0,1,0,96.43,38.88Z"/><path class="cls-35" d="M96.18,39.36a1.06,1.06,0,0,0-.46.13l-.56.26a4.59,4.59,0,0,0-.5.24l-.19.13c-.06.06-.18.19-.29.12s0,0,0,0a2.37,2.37,0,0,1-.33.22l-.16.08-.08.05a.1.1,0,0,1-.09,0h0l0-.06s0,0,0,0a.08.08,0,0,0-.07.1l0,0-.1,0a.22.22,0,0,0-.11,0c-.1.06-.1.15-.24.15a.2.2,0,0,0-.18,0c-.08,0-.25.23-.34.11a0,0,0,0,0,0,0l-.19.16-.06,0s0,0,0,0l.13-.09s.07,0,0,.09,0,0,0,0a.12.12,0,0,0,0-.13h0l.07-.06a.18.18,0,0,0,.19,0,.5.5,0,0,0,.17-.11c.09-.06.16,0,.25,0a.18.18,0,0,0,.1-.07.6.6,0,0,0,.08-.08.4.4,0,0,1,.16-.08.4.4,0,0,0,.13-.07.15.15,0,0,0,.16,0,2.13,2.13,0,0,0,.42-.23s.13-.11.19-.12.06,0,.1,0,.22-.12.3-.19a2.44,2.44,0,0,1,.48-.25l.53-.25a1.51,1.51,0,0,1,.61-.2A0,0,0,0,0,96.18,39.36Z"/><path class="cls-35" d="M96.64,39.94c0-.07,0-.14-.07-.21a0,0,0,0,0-.06,0,.4.4,0,0,1-.13.16l-.12,0c-.1.05-.28.28-.4.15h0a.74.74,0,0,1-.26.15,2.08,2.08,0,0,1-.25,0c-.12,0-.29.32-.4.2h-.05a2.8,2.8,0,0,1-.48.37l-.24.14L94,41s-.24.1-.23.06a0,0,0,0,0,0,0,2,2,0,0,1-.6.44l0-.08s0,0,0,0a2.37,2.37,0,0,1-.29.25v-.06s0,0,0,0l-.27.16-.06,0h0a.47.47,0,0,0-.13.15s0,0,0,0l.18-.08h0s0,0,0,0a.9.9,0,0,0,.19-.15l0,0v.06s0,0,0,0a1.87,1.87,0,0,0,.3-.26l0,.08s0,0,0,0a2.37,2.37,0,0,0,.61-.42c.07.07.38-.1.42-.12a3.2,3.2,0,0,0,.72-.5c.12.09.25-.07.33-.15s.14,0,.24,0l.14,0a1,1,0,0,0,.24-.14c.18.16.4-.2.57-.17,0,0,0,0,0,0l.09-.12s0,.1,0,.14S96.65,40,96.64,39.94ZM92.41,41.7l-.1,0S92.37,41.69,92.41,41.7Z"/><path class="cls-35" d="M96.32,40.39a.64.64,0,0,1-.32.18,2.44,2.44,0,0,1-.27,0,.28.28,0,0,0-.18.09c-.07.07-.11.12-.21.13h-.13a.25.25,0,0,0-.17.06.64.64,0,0,1-.18.1l-.14,0c-.13,0-.24.1-.24.22a.33.33,0,0,0-.33.09.1.1,0,0,0,0,0l0,.07a.38.38,0,0,1-.15.09l-.33.11c-.19.07-.4.13-.59.22a.4.4,0,0,0-.16.13,1.1,1.1,0,0,1-.2.23s0,.06,0,0,.16-.21.27-.3a1.15,1.15,0,0,1,.32-.14l.31-.11.28-.1a1.09,1.09,0,0,0,.23-.09.38.38,0,0,0,.09-.15.27.27,0,0,1,.33-.08s0,0,0,0c0-.18.23-.19.35-.23l.14-.08a.5.5,0,0,1,.21-.09h.11a.38.38,0,0,0,.15-.05c.08,0,.1-.14.21-.17a2.65,2.65,0,0,1,.27,0,.66.66,0,0,0,.38-.19S96.34,40.38,96.32,40.39Z"/><path class="cls-35" d="M95.34,41.28l-.69.28a5.45,5.45,0,0,0-.62.26c-.18.11-.34.25-.53.36a3.41,3.41,0,0,1-.64.3s0,0,0,0a4.23,4.23,0,0,0,.58-.25c.19-.11.36-.25.55-.36a4,4,0,0,1,.67-.3l.7-.26S95.38,41.27,95.34,41.28Z"/><path class="cls-35" d="M95.41,47.3c-.09-.51-.19-1-.29-1.53a.06.06,0,0,0-.06,0,2.83,2.83,0,0,0-.4.17s0,.08,0,.09c.12.66.22,1.33.34,2a0,0,0,0,0,.09,0,.72.72,0,0,1,.27-.25s.06,0,.08-.06S95.43,47.39,95.41,47.3Zm-.07.37s-.14.07-.18.11l-.07.08c-.11-.63-.25-1.25-.36-1.88.09-.06.23-.17.32-.09s.06.31.08.38c0,.24.09.48.13.72S95.44,47.54,95.34,47.67Z"/><path class="cls-35" d="M96.06,46.93c0-.16,0-.33-.08-.49a15.27,15.27,0,0,0-.45-1.89.05.05,0,0,0-.07,0c-.43.19-.28.67-.21,1,.12.58.25,1.16.38,1.73a.06.06,0,0,0,.06.09c.13,0,.36,0,.4-.19A.72.72,0,0,0,96.06,46.93Zm-.38.32c-.09-.41-.18-.83-.26-1.25l-.12-.66c0-.26-.1-.56.15-.71A12.61,12.61,0,0,1,95.78,46c0,.23.09.46.12.68a1.59,1.59,0,0,1,.06.36C96,47.23,95.83,47.22,95.68,47.25Z"/><path class="cls-35" d="M96.84,46.45c0-.2,0-.39-.09-.59a10.72,10.72,0,0,0-.56-2.23.06.06,0,0,0-.07,0c-.15,0-.37,0-.4.21a2.22,2.22,0,0,0,.06.51l.06.44a15.36,15.36,0,0,0,.45,2c0,.05.08,0,.07,0-.14-.51-.26-1-.35-1.56,0-.27-.09-.54-.12-.82a2,2,0,0,1,0-.42c0-.17.11-.19.25-.23a9,9,0,0,1,.44,1.6c0,.27.1.54.14.81a3.47,3.47,0,0,1,.06.45c0,.26-.16.3-.39.33-.07,0-.07.13,0,.12s.48,0,.53-.22A.84.84,0,0,0,96.84,46.45Z"/><path class="cls-35" d="M97.64,45.78l-.15-.57c-.2-.73-.39-1.46-.58-2.19a.07.07,0,0,0-.06,0h-.27s-.06,0-.06.08c.18,1,.36,2,.55,3,0,0,.09,0,.08,0-.17-1-.33-1.94-.51-2.9.17,0,.19,0,.24.24l.11.42.24.91.22.85c0,.08.16.41.13.48s-.39.1-.48.11-.08.14,0,.12.53,0,.58-.17S97.66,45.86,97.64,45.78Z"/><path class="cls-35" d="M96,42.52a7,7,0,0,1-1.9,2.74s0,.08,0,.05a7.24,7.24,0,0,0,2-2.76A.06.06,0,0,0,96,42.52Z"/><path class="cls-35" d="M96.39,42.9a1.33,1.33,0,0,1-.13-.43c0-.07,0-.2-.13-.2s-.17.15-.22.21-.25.26-.37.39,0,.06,0,0l.25-.26c.06,0,.23-.25.3-.23s.06.21.08.27a.58.58,0,0,0,.09.26C96.33,43,96.42,43,96.39,42.9Z"/><path class="cls-12" d="M97.11,49.42s0-.05.06-.05l0,0a.3.3,0,0,0,.22.06,1.52,1.52,0,0,1-.1.46c-.11,0-.44.08-.48-.05S97.05,49.51,97.11,49.42Z"/><path class="cls-12" d="M97.79,48.9c0-.06-.09-.08-.14-.09a.34.34,0,0,0-.31.23.13.13,0,0,0,0,.05h0s0,0,0,0,0,.05.06.07a.28.28,0,0,0,.38-.11S97.81,49,97.79,48.9Z"/><path class="cls-12" d="M98.23,48.33s-.09,0-.13-.06-.11,0-.15,0a.42.42,0,0,0-.1.17.54.54,0,0,0-.07.13l0,0v0l0,0s0,0,0,0v0c.11.06.23.09.32,0S98.27,48.42,98.23,48.33Z"/><path class="cls-12" d="M98.48,47.86a.1.1,0,0,0-.08-.07s-.1,0-.13,0,0,.09-.07.13l-.07.18s0,0,0,0l0,0a.18.18,0,0,0,.24-.05A.31.31,0,0,0,98.48,47.86Z"/><path class="cls-12" d="M97.93,49.13s0-.05.07,0l0,0a.27.27,0,0,0,.21.06,1.46,1.46,0,0,1-.1.46c-.11,0-.44.09-.48-.05S97.87,49.22,97.93,49.13Z"/><path class="cls-12" d="M98.61,48.61s-.09-.08-.14-.08a.32.32,0,0,0-.31.22l0,0h0v0a.11.11,0,0,0,.06.06.28.28,0,0,0,.38-.11A.27.27,0,0,0,98.61,48.61Z"/><path class="cls-12" d="M99.05,48S99,48,98.92,48s-.1,0-.15,0-.07.11-.1.16l-.07.13v0a0,0,0,0,0,0,0s0,0,0,0,0,.05,0,0l0,0a.23.23,0,0,0,.31,0C99,48.3,99.09,48.13,99.05,48Z"/><path class="cls-12" d="M99.3,47.57a.1.1,0,0,0-.08-.07.29.29,0,0,0-.13,0s0,.09-.07.13a1.46,1.46,0,0,1-.07.19s0,0,0,0l0,0a.18.18,0,0,0,.24-.06A.35.35,0,0,0,99.3,47.57Z"/><path class="cls-12" d="M99,49.12a.07.07,0,0,1,.06,0,.05.05,0,0,1,0,0,.25.25,0,0,0,.22.06,1.8,1.8,0,0,1-.1.46c-.12,0-.44.09-.48,0S98.89,49.21,99,49.12Z"/><path class="cls-12" d="M99.64,48.61a.15.15,0,0,0-.14-.09c-.16,0-.25.1-.32.22a.14.14,0,0,0,0,.06h0a0,0,0,0,0,0,0s0,0,.06.06a.26.26,0,0,0,.37-.1A.31.31,0,0,0,99.64,48.61Z"/><path class="cls-12" d="M100.08,48a.17.17,0,0,0-.14-.05s-.1,0-.14,0-.08.11-.11.16l-.06.13,0,0v0l0,0s0,0,0,0v0c.11.06.22.09.32,0S100.12,48.12,100.08,48Z"/><path class="cls-12" d="M100.33,47.56a.08.08,0,0,0-.08-.06.19.19,0,0,0-.13,0s-.05.09-.07.13,0,.13-.07.19,0,0,0,0l0,0a.19.19,0,0,0,.24-.05A.35.35,0,0,0,100.33,47.56Z"/><path class="cls-12" d="M99.78,48.84a.07.07,0,0,1,.06-.05s0,0,0,0a.23.23,0,0,0,.21,0,1.4,1.4,0,0,1-.1.46c-.11,0-.44.09-.48,0S99.72,48.93,99.78,48.84Z"/><path class="cls-12" d="M100.46,48.32c0-.06-.09-.08-.14-.09a.34.34,0,0,0-.31.23s0,0,0,0h0s0,0,0,0a.07.07,0,0,0,.06.06.27.27,0,0,0,.38-.1S100.48,48.37,100.46,48.32Z"/><path class="cls-12" d="M100.9,47.75s-.09,0-.13-.06-.11,0-.15,0a.42.42,0,0,0-.1.17.75.75,0,0,0-.07.12l0,0v0a.05.05,0,0,0,0,0s0,0,0,0v0c.11.06.23.09.32,0S100.94,47.83,100.9,47.75Z"/><path class="cls-12" d="M101.15,47.28a.1.1,0,0,0-.08-.07.19.19,0,0,0-.13,0s0,.1-.07.14l-.07.18s0,0,0,0a0,0,0,0,0,0,0,.19.19,0,0,0,.24-.05C101.12,47.48,101.18,47.35,101.15,47.28Z"/><path class="cls-31" d="M11.91,68.42c2.52,1.27,5.24,2.12,7.83,3.24a79.34,79.34,0,0,1,7.6,4,1.76,1.76,0,0,1,.67.54c.41.65-.15,1.47-.69,2a3.49,3.49,0,0,1-2,1.3,3.48,3.48,0,0,1-2-.62L2.42,67.17c-2.44-1.36-4-5,.13-4.39C5.94,63.29,8.9,66.89,11.91,68.42Z"/><path class="cls-36" d="M26.17,76.37a3.22,3.22,0,0,0-1.54,2.3c0,.09.15.12.17,0a3.21,3.21,0,0,1,.63-1.25,2.17,2.17,0,0,1,.63-.65,1.3,1.3,0,0,1,.37-.19c.26-.08.35-.09.54.13s.17.37,0,.63a1.87,1.87,0,0,1-.28.35,4,4,0,0,1-.53.48c-.07,0-.23.2-.32.21s0-.05,0-.17a1.13,1.13,0,0,1,.61-.57c.21-.09,0-.41-.18-.31a1.41,1.41,0,0,0-.76.76c-.09.22-.18.6.13.69s.69-.34.89-.51a2.26,2.26,0,0,0,.87-1.17C27.62,76.28,26.8,76.06,26.17,76.37Z"/><path class="cls-13" d="M33.54,74.89a.59.59,0,0,1,.52.79c-.06.6-.21,1.32-.78,1.48a1.53,1.53,0,0,1-.82-.06c-7.75-2.18-15.09-5.57-22.39-9A9.12,9.12,0,0,1,7,66.68,1.35,1.35,0,0,1,6.64,65c.84-1.28,4.46,1.33,5.44,1.82a116.86,116.86,0,0,0,13.51,5.72C28.2,73.44,30.85,74.24,33.54,74.89Z"/><path class="cls-31" d="M33.5,75.44A1.91,1.91,0,0,0,33,76.87s.07,0,.07,0a1.58,1.58,0,0,1,.23-.89l.13-.23c.08-.12.13-.3.3-.26s.11.25.08.4a2.45,2.45,0,0,1-.08.29c0,.13-.34.44-.3.16a1.54,1.54,0,0,1,.15-.32c0-.09-.1-.18-.15-.08s-.42.74,0,.75.6-.71.59-1S33.75,75.12,33.5,75.44Z"/><path class="cls-11" d="M37.78,59.79a.67.67,0,0,1,.39-.07.63.63,0,0,1,.33.25c2.09,2.57,4,5.33,6.47,7.52.18.16.38.36.33.59s-.23.3-.4.38A34.51,34.51,0,0,1,34.64,71.6l-2.7-5.78c-.3-.66-1.13-1.63-1.21-2.33-.1-.86,1-1.06,1.61-1.33Z"/><path class="cls-11" d="M65.84,69.13a1.1,1.1,0,0,1,.86.3,1.55,1.55,0,0,1,.26.94,50.92,50.92,0,0,1-.07,6.42q-7.68-.47-15.37-.5c0-1.67,0-3.34,0-5,0-1.14-.3-2.5.9-2.74a18.69,18.69,0,0,1,4.15.16l4.29.2Z"/><path class="cls-16" d="M87,79.52a2.05,2.05,0,0,0,.23.88,1.37,1.37,0,0,0,1.21.56,3.76,3.76,0,0,0,1.35-.36,1,1,0,0,0,.48-.3,1,1,0,0,0,.16-.51c.17-1.33.34-2.67.52-4a1.21,1.21,0,0,0,0-.38c-.1-.43-.63-.58-1.08-.61-.71-.05-2.79-.16-3.2.61-.23.43.06,1.37.11,1.85C86.88,78,87,78.76,87,79.52Z"/><path class="cls-31" d="M90.17,75.39a2.16,2.16,0,0,0,.76,0,.63.63,0,0,0,.48-.52.62.62,0,0,0-.39-.57,1.65,1.65,0,0,0-.73-.12c-.77,0-3.86-.42-4,.71-.1.75,1,.46,1.43.44A17,17,0,0,1,90.17,75.39Z"/><path class="cls-12" d="M54.66,69.62c0-.15-.17-.4,0-.52,0,0,0,0,0,0s-.1.2-.07.32a1.32,1.32,0,0,1,0,.44,2.92,2.92,0,0,1-.13.42c0,.13-.11.26-.14.39s.06.25,0,.38-.16.18-.07.32.11.12.11.21a.58.58,0,0,1-.08.18c0,.15-.11.3-.17.44a1.06,1.06,0,0,0-.16.66,1.14,1.14,0,0,1,0,.73,2.51,2.51,0,0,0-.18.59c0,.3.23.55.12.83a1.71,1.71,0,0,1-.28.42l-.38.49a0,0,0,1,0,0,0c.18-.24.37-.47.54-.71a.58.58,0,0,0,.14-.57,1.82,1.82,0,0,1-.11-.3.87.87,0,0,1,0-.39c.06-.2.16-.4.21-.61a1.14,1.14,0,0,0,0-.55.68.68,0,0,1,.09-.44l.18-.45c.06-.15.2-.35.11-.51s-.12-.14-.1-.22,0-.08.06-.1a.32.32,0,0,0,.06-.17.24.24,0,0,0,0-.08.46.46,0,0,1,0-.26,1.8,1.8,0,0,1,.08-.21c0-.15.11-.29.15-.44A.81.81,0,0,0,54.66,69.62Z"/><path class="cls-12" d="M55.38,70.32a0,0,0,1,0-.07,0A8,8,0,0,1,55,73.11a2.52,2.52,0,0,0-.31,1.22,1.47,1.47,0,0,1-.06.69,3.82,3.82,0,0,0-.19.66,0,0,0,1,0,0,0,5,5,0,0,0,.27-1.27,1.39,1.39,0,0,1,.06-.7c.08-.22.19-.43.27-.65A8,8,0,0,0,55.38,70.32Z"/><path class="cls-12" d="M55.88,71.2s0,0,0,0a7.06,7.06,0,0,1-.24,2.46,5.76,5.76,0,0,0-.19,2.26s.08,0,.07,0a7.47,7.47,0,0,1,.22-2.44A6.22,6.22,0,0,0,55.88,71.2Z"/><path class="cls-12" d="M56.49,72.64c-.21,1.11-.41,2.22-.61,3.33,0,0,.06.07.07,0,.19-1.11.38-2.23.56-3.34C56.51,72.63,56.49,72.63,56.49,72.64Z"/><path class="cls-12" d="M57.53,71.83a0,0,0,1,0,0,0,15.93,15.93,0,0,1-.44,4.29s.06.07.08,0A15.61,15.61,0,0,0,57.53,71.83Z"/><path class="cls-12" d="M58.41,70.41a22,22,0,0,1-.78,5s0,0,0,0a23.85,23.85,0,0,0,.8-5S58.41,70.37,58.41,70.41Z"/><path class="cls-12" d="M63.45,72.58a1.86,1.86,0,0,0-1.58-1.78c-.06,0-.06.09,0,.09a1.7,1.7,0,0,1,1.45,1.47,1.83,1.83,0,0,1-.53,2,2,2,0,0,1-2.14.25,2,2,0,0,1-.64-.9,1.15,1.15,0,0,1,.12-1.16,3,3,0,0,1,2.07-1.19s0-.06,0,0a3.13,3.13,0,0,0-2.07,1.14,1.22,1.22,0,0,0-.27,1,2.16,2.16,0,0,0,.58,1,1.84,1.84,0,0,0,2.23,0,1.44,1.44,0,0,0,.7-.76A2.45,2.45,0,0,0,63.45,72.58Z"/><path class="cls-12" d="M63.08,72.18c-1,.52-2,1.1-3,1.71,0,0,0,.06,0,0,1-.61,2-1.15,3-1.67A0,0,0,0,0,63.08,72.18Z"/><path class="cls-12" d="M62.52,74.56A24,24,0,0,1,61,71.86s0,0,0,0a23.18,23.18,0,0,0,1.48,2.73C62.47,74.65,62.55,74.6,62.52,74.56Z"/><path class="cls-12" d="M61.48,73.1A8.43,8.43,0,0,0,61,74.88c0,.05.07.08.08,0a11.27,11.27,0,0,1,.48-1.79S61.49,73.07,61.48,73.1Z"/><path class="cls-12" d="M63,73.82c-.44-.26-.88-.52-1.33-.77,0,0,0,0,0,0l1.31.8S63,73.85,63,73.82Z"/><path class="cls-12" d="M62.18,74.64c-.07,0-.15-.06-.22-.07a.75.75,0,0,0-.21,0h0l.09,0c.13-.07.27-.12.33-.25a0,0,0,0,0,0,0l-.2,0,.15-.12a0,0,0,0,0,0-.07l-.41.13.29-.21a0,0,0,0,0,0-.07,1.65,1.65,0,0,0-.32.06,3.11,3.11,0,0,0,.28-.23s0-.07,0-.06l-.24.06.12-.07s0-.08,0-.07l-.2,0a2,2,0,0,0,.38-.26s0,0,0,0a1.53,1.53,0,0,0-.38.12s0,0,0,0a1.25,1.25,0,0,1,.26-.07,2.72,2.72,0,0,1-.5.29,0,0,0,0,0,0,.06l.2,0-.15.08s0,.08,0,.07l.37-.08c-.12.09-.24.18-.37.26s0,.09,0,.07l.4-.11a5.36,5.36,0,0,1-.59.38,0,0,0,1,0,0,.07,4.22,4.22,0,0,1,.7-.27,2.08,2.08,0,0,1-.38.22s0,.09,0,.07a3.75,3.75,0,0,1,.47-.17,1.59,1.59,0,0,1-.34.18l-.48.23s0,.09,0,.07a2.59,2.59,0,0,1,.6-.18c.13,0,.18,0,.3.06h.1S62.23,74.63,62.18,74.64Z"/><path class="cls-12" d="M63.26,72.58s-.08,0-.09,0a3.93,3.93,0,0,1-.06.48c0-.18-.06-.37-.08-.55a0,0,0,0,0-.08,0l-.12.67c0-.16,0-.32-.08-.48s-.08,0-.08,0a3,3,0,0,1,0,.42l-.06-.45a0,0,0,0,0-.07,0l-.06.29,0-.32s-.06,0-.06,0a1.89,1.89,0,0,1-.1.41c0-.1,0-.21,0-.31a0,0,0,0,0-.05,0L62,73a.64.64,0,0,1,0-.2h0s0,0,0,0,0,0,0,0,0,.2,0,.21a0,0,0,0,0,.05,0l.16-.22.06.34s0,0,0,0a1.28,1.28,0,0,0,.11-.33l.05.34s0,.05.06,0,0-.22.06-.33c0,.16.05.33.07.49a0,0,0,0,0,.07,0c0-.11,0-.22,0-.33l.06.37a0,0,0,0,0,.08,0c0-.21.08-.43.11-.64l.09.53s.07,0,.08,0l.06-.32a2,2,0,0,1,0,.34s.08.06.09,0A2.49,2.49,0,0,0,63.26,72.58Z"/><path class="cls-12" d="M62.77,74.08l-.12.14a1.17,1.17,0,0,0,.05-.2s0,0,0,0l-.1,0s-.07,0-.08,0l0-.13s0-.06,0-.06l-.13,0a4.72,4.72,0,0,0-.27-.61,0,0,0,0,0-.06,0l0,0c-.05,0,0,.11,0,.08h0a3.56,3.56,0,0,1,.25.61.05.05,0,0,0,.08,0l.06,0c0,.09,0,.19,0,.24s.13,0,.19,0a2.23,2.23,0,0,1-.09.32s0,0,.07,0l.23-.29A0,0,0,0,0,62.77,74.08Z"/><path class="cls-12" d="M61.29,72.8s.12,0,.08,0a.67.67,0,0,1-.1-.21.28.28,0,0,0,0-.2,0,0,0,0,0-.08,0h0L61,72s-.08,0-.07,0a5.12,5.12,0,0,0,.15.56,1.93,1.93,0,0,1,.17.45l0-.09s-.05,0-.07,0a.12.12,0,0,1,0,0,.85.85,0,0,0,0-.17s0-.06-.06,0a2.43,2.43,0,0,0-.25.2,1.33,1.33,0,0,0,.1-.24s0-.07-.06,0l-.08.09c0-.09.1-.17.14-.26s0-.08-.06,0c-.16.19-.31.39-.46.59l.46-.83s0-.08-.06,0l-.48.58a4.67,4.67,0,0,0,.55-.84s0-.06,0,0a3,3,0,0,0-.91,1.3s0,0,0,0A3,3,0,0,1,60.76,72c-.2.38-.51.69-.72,1.06,0,0,0,.07.06,0s.32-.35.48-.54l-.57,1a0,0,0,0,0,.07,0c.16-.24.34-.47.52-.7-.13.19-.26.38-.4.56h0s0,.09.06.05h0l.47-.58a2.92,2.92,0,0,1-.24.37s0,.08.07.05a2.27,2.27,0,0,1,.47-.46.77.77,0,0,1-.12.28,0,0,0,0,0,.07,0l.18-.2.06.14a0,0,0,0,0,.07,0c.11-.13,0-.29,0-.42l-.06-.15h0A.61.61,0,0,0,61.29,72.8Z"/><path class="cls-12" d="M61.55,60.87a11.19,11.19,0,0,0-1.61.89,8.57,8.57,0,0,0-1.26,1,3.43,3.43,0,0,1-.69.51c-.28.15-.63.26-.88.43A8,8,0,0,0,56,64.79,9.22,9.22,0,0,1,54.19,66s0,0,0,0a9.68,9.68,0,0,0,1.55-1c.43-.38.75-.79,1.2-1.16a3.48,3.48,0,0,1,.86-.46,3.36,3.36,0,0,0,.7-.44c.42-.35.77-.71,1.24-1a10.74,10.74,0,0,1,1.84-1S61.59,60.85,61.55,60.87Z"/><path class="cls-12" d="M57.55,62.81c-.34.29-.59.6-.95.87a13.61,13.61,0,0,1-1.51.88s0,0,0,0a14.4,14.4,0,0,0,1.35-.76,7,7,0,0,0,.94-.83,9.54,9.54,0,0,1,2.32-1.37A8,8,0,0,0,61,60.9s0,0,0,0a22.55,22.55,0,0,1-2.4,1.28A5.07,5.07,0,0,0,57.55,62.81Z"/><path class="cls-12" d="M55.72,62.89l-1.13,1s0,0,0,0c.72-.62,1.41-1.25,2.17-1.86a9.43,9.43,0,0,1,1.25-.76,3.06,3.06,0,0,0,.49-.35,1.62,1.62,0,0,1,.54-.38s0-.06,0,0a1.36,1.36,0,0,0-.47.3,3,3,0,0,1-.51.4,12.35,12.35,0,0,0-1.24.75C56.44,62.25,56.09,62.57,55.72,62.89Z"/><path class="cls-12" d="M55.9,61.94l2-1.27s0,0,0,0l-2,1.28c-.32.21-.64.42-1,.62s-.67.41-1,.63c0,0,0,0,.06,0,.34-.2.65-.42,1-.63Z"/><path class="cls-12" d="M54.77,61.66c.43-.25.83-.52,1.23-.79s.92-.6,1.42-.89c0,0,0,0-.07,0-.9.5-1.63,1.08-2.49,1.6-.42.25-.88.48-1.31.74a4.38,4.38,0,0,0-1,.78c-.31.34-.54.7-.84,1.05h0a7.6,7.6,0,0,1,1.78-1.75C53.91,62.12,54.36,61.9,54.77,61.66Z"/><path class="cls-12" d="M55.54,60.28s0,0,0,0a8.8,8.8,0,0,1-2.42,1.57c-1,.51-2,1-2.94,1.58,0,0,0,.06.06,0,.5-.29,1-.58,1.52-.86s1-.5,1.46-.75A8.88,8.88,0,0,0,55.54,60.28Z"/><path class="cls-12" d="M54,59.57s0,0-.08,0a13.82,13.82,0,0,1-4.39,2.87s0,.05,0,0A13.87,13.87,0,0,0,54,59.57Z"/><path class="cls-12" d="M52.68,59.63s0,0,0,0a31.81,31.81,0,0,1-4.44,2.53c-.05,0,0,.06.07,0A32,32,0,0,0,52.68,59.63Z"/><path class="cls-13" d="M75,57.43a47.22,47.22,0,0,1-4.84-1c-1.56-.44-3.09-1-4.69-1.35a2.39,2.39,0,0,0-1.84.14A27.83,27.83,0,0,0,61.34,57c-1.53,1.17-3,2.36-4.54,3.56a.08.08,0,0,0,0,.09.27.27,0,0,0,0,.48,13.59,13.59,0,0,0,4.45,1c1.62.25,3.23.56,4.82.94s3.16.82,4.71,1.34a4.58,4.58,0,0,0,2.09.54c.56-.12.79-.77,1-1.21a36.4,36.4,0,0,0,2.06-4.15C76.33,58.6,76.23,57.63,75,57.43Z"/><path class="cls-11" d="M74.87,57.16a43.75,43.75,0,0,1-4.84-1c-1.57-.44-3.1-1-4.7-1.35a2.4,2.4,0,0,0-1.84.15A25.67,25.67,0,0,0,61.2,56.7q-2.28,1.77-4.54,3.56a.09.09,0,0,0,0,.1.26.26,0,0,0,0,.47,13.92,13.92,0,0,0,4.46,1.06c1.61.24,3.22.56,4.81.94s3.16.82,4.71,1.33a4.61,4.61,0,0,0,2.09.54c.56-.12.79-.76,1-1.21a35.59,35.59,0,0,0,2.06-4.15C76.19,58.32,76.09,57.36,74.87,57.16Z"/><path class="cls-12" d="M70.23,57.52a6.24,6.24,0,0,1-2-.51,2.91,2.91,0,0,0-.8-.32c-.29-.06-.58-.08-.87-.15C66,56.4,65.52,56.12,65,56s-1.18-.05-1.66-.34a.08.08,0,0,0-.08,0,22.18,22.18,0,0,1-3,3.09.06.06,0,0,0,0,.1,2.08,2.08,0,0,0,1,.13c.37-.12.71-.34,1.08-.48a10.74,10.74,0,0,1,1.22-.38l-.08.11a0,0,0,1,0,.05,0l.15-.17a10.11,10.11,0,0,1,1.1-.19,9.15,9.15,0,0,1,2.45.08,12.89,12.89,0,0,1,2.43.75l0,.11s.06.06.07,0l0-.11c.07,0,.09-.08,0-.12a6,6,0,0,1,.44-1A.05.05,0,0,0,70.23,57.52Zm-.47,1a13.23,13.23,0,0,0-2.39-.74,8.79,8.79,0,0,0-2.35-.1,9.12,9.12,0,0,0-1.15.17c.46-.53.94-1,1.42-1.55,0-.05,0-.11-.07-.07-.52.52-1,1.08-1.46,1.64-.34.08-.68.17-1,.28a10.28,10.28,0,0,0-1,.42,1.21,1.21,0,0,1-.73.22c-.19,0-.38-.08-.56-.12a28.46,28.46,0,0,0,2.06-2l.51-.59c0-.06.17-.27.25-.3s.13,0,.22,0a2.08,2.08,0,0,0,.66.11c-.48.57-.92,1.18-1.36,1.77a0,0,0,0,0,.07,0c.45-.6.93-1.18,1.38-1.78v0a2.63,2.63,0,0,1,.49.06,11.68,11.68,0,0,1,1.29.47,9.07,9.07,0,0,0,1.46.33,11.43,11.43,0,0,1,1.33.52,5.75,5.75,0,0,0,1.37.28A4.4,4.4,0,0,0,69.76,58.57Z"/><path class="cls-12" d="M69,58.87a13.25,13.25,0,0,0-5.91,0l.24-.28s0-.07,0,0-.28.34-.44.49a0,0,0,0,0,0,.07l.52.31a.06.06,0,0,0,.06-.11,2.87,2.87,0,0,0-.49-.26L63,59l.06,0A13.75,13.75,0,0,1,69,58.93S69.08,58.88,69,58.87Z"/><path class="cls-12" d="M66,56.7c-.19.31-.37.61-.56.9,0,0,0,.09.06,0,.2-.29.39-.59.57-.89A0,0,0,0,0,66,56.7Z"/><path class="cls-12" d="M66.91,56.85l-.49.75s0,.08.07,0L67,56.9S67,56.8,66.91,56.85Z"/><path class="cls-12" d="M67.83,57c-.18.2-.35.4-.53.59,0,0,0,.1.06.06l.54-.58S67.87,57,67.83,57Z"/><path class="cls-12" d="M68.4,57.28a2.16,2.16,0,0,0-.27.55s.05.06.06,0a2.43,2.43,0,0,1,.28-.53S68.43,57.23,68.4,57.28Z"/><path class="cls-12" d="M68.85,58.09l.13-.21s.13-.19.12-.21a0,0,0,0,0,.08,0c0-.08-.13,0-.16,0a3.3,3.3,0,0,0-.23.41A0,0,0,1,0,68.85,58.09Z"/><path class="cls-12" d="M69.41,58.24l.48-.55s0-.13-.08-.08-.31.38-.47.56S69.37,58.29,69.41,58.24Z"/><path class="cls-12" d="M71.12,62.7a.1.1,0,0,0,0-.11.09.09,0,0,0-.14,0c-.06-.09-.18,0-.27,0a.13.13,0,0,0-.08-.11.09.09,0,0,0-.1,0s0,0-.08,0,0,0-.08,0l-.08,0c-.16,0-.31.12-.45,0a.67.67,0,0,0-.14-.09H69.4a.88.88,0,0,1-.3-.1c-.07,0-.12-.11-.19-.14a.78.78,0,0,0-.21,0,1.09,1.09,0,0,1-.27-.11,1.13,1.13,0,0,0-.18-.12c-.07,0-.12,0-.2,0s-.46-.1-.64-.2a2.24,2.24,0,0,0-.54-.26,1.24,1.24,0,0,0-.27,0,.65.65,0,0,1-.39,0,0,0,0,0,0,0,0,.78.78,0,0,0,.43,0,1.21,1.21,0,0,1,.55.16c.15.08.3.17.45.24a.74.74,0,0,0,.43.1s.1-.05.16,0a.26.26,0,0,1,.11.07l.2.11a.9.9,0,0,0,.22.06.44.44,0,0,1,.24.11.87.87,0,0,0,.37.16.83.83,0,0,0,.22,0,.24.24,0,0,1,.18.07.18.18,0,0,0,.07.05c.11.06.23,0,.34,0a.19.19,0,0,1,.18,0,.15.15,0,0,0,.07,0h0l0,0s.17,0,.13.08,0,.05,0,0,.23-.15.27,0,0,0,0,0,.08-.08.08.08h0a0,0,0,0,0,0,0s0,0,0,0a.12.12,0,0,1,.08,0s0,0,0,0S71.16,62.69,71.12,62.7Z"/><path class="cls-12" d="M71.51,62.19c-.67-.12-1.35-.21-2-.37-.32-.08-.62-.2-.94-.28a3.78,3.78,0,0,1-.92-.29s0,0,0,0a4.14,4.14,0,0,0,.86.29c.32.08.63.2,1,.28s.67.13,1,.19l1.06.2A0,0,0,0,0,71.51,62.19Z"/><path class="cls-12" d="M69,61.33c.41.11.82.2,1.24.27a5.39,5.39,0,0,1,1.2.21s.05,0,0,0a4.56,4.56,0,0,0-1.17-.21c-.43-.08-.85-.19-1.28-.29C69,61.27,69,61.32,69,61.33Z"/><path class="cls-12" d="M71.77,61.29a7.42,7.42,0,0,0-.94-.18c-.3,0-.61-.07-.92-.08,0,0,0,0,0,0,.32,0,.64.06,1,.1l.9.18S71.8,61.3,71.77,61.29Z"/><path class="cls-12" d="M70.45,60.71c.42,0,.79.24,1.21.29,0,0,0,0,0,0a9.09,9.09,0,0,0-1.22-.31S70.41,60.7,70.45,60.71Z"/><path class="cls-12" d="M41.68,66.48l-.46.16s0,0,0,0a.41.41,0,0,1-.05.18.57.57,0,0,0-.33-.11h-.16a.39.39,0,0,0-.15,0,.41.41,0,0,0-.37.33.23.23,0,0,0-.32-.06c-.12.09-.06.28-.27.26a.29.29,0,0,0-.25.07c-.08.06-.14.15-.23.22s-.28,0-.44,0-.42.1-.62.21a.58.58,0,0,1-.25.09l-.21,0a.33.33,0,0,0-.15.11s0,0,0,0-.08,0-.1,0,0,0,0,0a.33.33,0,0,1-.08.17s-.19.07-.19,0a0,0,0,1,0,0,0,.46.46,0,0,1-.11.22s0,0-.05,0l-.06-.09s0,0,0,0c.06.17-.21.26-.23.06h0s0,0,0,0v0a.18.18,0,1,1-.35.06s0,0,0,0a.63.63,0,0,1-.22.31c-.16.1-.22-.12-.23-.25s0,0,0,0l-.07.14s0,0,0,0l.06-.11c0,.11.06.27.18.27s.24-.2.3-.32a.19.19,0,0,0,.23.13.2.2,0,0,0,.15-.18.14.14,0,0,0,.16.06.16.16,0,0,0,.11-.14l.05.09h0a.58.58,0,0,0,.14-.24.14.14,0,0,0,.16,0,.19.19,0,0,0,.11-.09s0-.1,0-.11.08,0,.11,0a0,0,0,0,0,0,0c.05-.22.33-.18.49-.23a1.23,1.23,0,0,0,.32-.17.52.52,0,0,1,.43-.1.53.53,0,0,0,.39,0,1,1,0,0,0,.22-.2.67.67,0,0,1,.14-.11.38.38,0,0,1,.21,0c.13,0,.15-.09.2-.19a.18.18,0,0,1,.34,0s0,0,0,0a.4.4,0,0,1,.42-.37l.11,0,.1,0a.52.52,0,0,1,.36.11s0,0,0,0a.61.61,0,0,0,.05-.12c0-.07,0-.08.08-.11l.38-.12A0,0,0,0,0,41.68,66.48Z"/><path class="cls-12" d="M41.44,67.61c0,.07-.17,0-.22,0s-.08.06-.12.1-.32.09-.49.12a2.17,2.17,0,0,0-.53.21l-.61.27-.57.27a3.48,3.48,0,0,0-.48.3,1.13,1.13,0,0,1-.57.18c-.2,0-.4,0-.6,0l-.3,0c-.11,0-.18.13-.29.15s-.29,0-.35.14l0,0s0,0,0,0a.09.09,0,0,0,.06.13,0,0,0,0,0,0,0c0-.14.19-.13.29-.14a.37.37,0,0,0,.2-.09.58.58,0,0,1,.28-.09l.34,0c.19,0,.39,0,.58-.05a1,1,0,0,0,.45-.19,6.12,6.12,0,0,1,1.13-.6l.6-.27a1.22,1.22,0,0,1,.56-.17.63.63,0,0,0,.23,0c.07,0,.1-.08.15-.13s.15,0,.24-.07a.07.07,0,0,0,.07-.06S41.44,67.59,41.44,67.61Z"/><path class="cls-12" d="M37.83,66.75a4.4,4.4,0,0,0-.52.3,3.76,3.76,0,0,1-.55.32c-.33.14-.74.06-1,.32,0,0,0,0,0,0,.27-.24.66-.17,1-.3a2.34,2.34,0,0,0,.49-.27,6.16,6.16,0,0,1,.55-.33A10.66,10.66,0,0,1,39,66.33l1.16-.46a1.4,1.4,0,0,1,.67-.11.38.38,0,0,0,.39-.1s0,0,0,0-.33.09-.48.08a1.31,1.31,0,0,0-.54.11c-.38.15-.76.32-1.15.46S38.2,66.57,37.83,66.75Z"/><path class="cls-12" d="M36.39,67l.53-.32c.36-.21.73-.41,1.1-.59a9,9,0,0,1,1.1-.39,3.25,3.25,0,0,0,1.11-.49s0,0,0,0a2.83,2.83,0,0,1-1,.45,11,11,0,0,0-1.06.36,8,8,0,0,0-1,.51l-.51.29-.23.14c-.11.07-.21.13-.33.07s-.25-.18-.43-.14-.31.15-.49.12c0,0,0,0,0,.05a.73.73,0,0,0,.38-.09.41.41,0,0,1,.24,0A.77.77,0,0,1,36,67,.33.33,0,0,0,36.39,67Z"/><path class="cls-12" d="M37.85,65.37c-.53.24-1.1.33-1.65.53a2.49,2.49,0,0,0-.83.45s0,0,0,0A4.11,4.11,0,0,1,37,65.7a5.24,5.24,0,0,0,.82-.27,5.59,5.59,0,0,0,.82-.47,4.38,4.38,0,0,1,1.06-.53s0,0,0,0a3.6,3.6,0,0,0-.91.43A7.34,7.34,0,0,1,37.85,65.37Z"/><path class="cls-12" d="M38.44,64.3a10.28,10.28,0,0,0,1-.42s0,0,0,0a11,11,0,0,1-1.85.66c-.66.2-1.31.42-1.94.68-.37.15-.74.3-1.1.47,0,0,0,0,0,0,.65-.26,1.28-.56,1.94-.79S37.8,64.51,38.44,64.3Z"/><path class="cls-12" d="M38.83,63.29s0,0,0,0c-.28.12-.56.24-.85.34l-.87.28c-.59.17-1.18.33-1.76.54a7.35,7.35,0,0,0-1,.41s0,0,0,0a25.41,25.41,0,0,1,3.48-1.17A6.66,6.66,0,0,0,38.83,63.29Z"/><path class="cls-12" d="M38.22,62.59s0,0,0,0c-1.2.41-2.4.81-3.62,1.15L33.54,64s0,0,0,0c1.23-.29,2.44-.69,3.64-1.1Z"/></svg>